<?xml version="1.0" encoding="UTF-8" standalone="no"?>
<!-- Created with Inkscape (http://www.inkscape.org/) -->

<svg
   xmlns:dc="http://purl.org/dc/elements/1.1/"
   xmlns:cc="http://creativecommons.org/ns#"
   xmlns:rdf="http://www.w3.org/1999/02/22-rdf-syntax-ns#"
   xmlns:svg="http://www.w3.org/2000/svg"
   xmlns="http://www.w3.org/2000/svg"
   xmlns:sodipodi="http://sodipodi.sourceforge.net/DTD/sodipodi-0.dtd"
   xmlns:inkscape="http://www.inkscape.org/namespaces/inkscape"
   width="460.117"
   height="417.1098"
   id="svg2"
   version="1.1"
   inkscape:version="0.48.4 r9939"
   sodipodi:docname="apple-store-icon.svg">
  <defs
     id="defs4" />
  <sodipodi:namedview
     id="base"
     pagecolor="#ffffff"
     bordercolor="#666666"
     borderopacity="1.0"
     inkscape:pageopacity="0.0"
     inkscape:pageshadow="2"
     inkscape:zoom="0.35"
     inkscape:cx="233.62993"
     inkscape:cy="211.41204"
     inkscape:document-units="px"
     inkscape:current-layer="layer1"
     showgrid="false"
     fit-margin-top="15"
     fit-margin-left="15"
     fit-margin-right="15"
     fit-margin-bottom="15"
     inkscape:window-width="1366"
     inkscape:window-height="709"
     inkscape:window-x="0"
     inkscape:window-y="27"
     inkscape:window-maximized="1" />
  <metadata
     id="metadata7">
    <rdf:RDF>
      <cc:Work
         rdf:about="">
        <dc:format>image/svg+xml</dc:format>
        <dc:type
           rdf:resource="http://purl.org/dc/dcmitype/StillImage" />
        <dc:title></dc:title>
      </cc:Work>
    </rdf:RDF>
  </metadata>
  <g
     inkscape:label="Layer 1"
     inkscape:groupmode="layer"
     id="layer1"
     transform="translate(-141.37007,-326.66443)">
    <g
       id="g3025"
       transform="translate(156.37007,320.16122)"
       style="fill:#ffffff">
      <g
         id="g2986"
         style="fill:#ffffff">
        <path
           d="m 0,258.734 v -58.366 c 0,-5.346 4.392,-9.719 9.772,-9.719 H 112.91 L 68.006,268.466 H 9.772 C 4.392,268.466 0,264.102 0,258.734 z m 73.469,119.515 -32.915,22.3 c -4.429,3.01 -7.561,1.105 -6.947,-4.21 l 4.392,-38.153 c 0.611,-5.315 4.921,-7.486 9.582,-4.83 l 25.473,14.552 c 4.653,2.669 4.844,7.34 0.415,10.341 z M 81.373,356.743 55.9,342.186 c -4.657,-2.66 -6.298,-8.625 -3.589,-13.264 L 170.265,124.453 c 2.676,-4.646 8.708,-6.275 13.362,-3.58 l 25.473,14.519 c 4.66,2.695 6.259,8.665 3.589,13.294 L 94.737,353.169 c -2.672,4.639 -8.709,6.23 -13.364,3.574 z m 89.771,-88.277 44.904,-77.817 h 25.856 l 36.463,77.817 H 171.144 z m 146.25,23.222 C 307.197,286.596 256.41,169.936 243.398,139.498 230.372,109.059 191.04,28.036 203.763,21.731 c 9.049,-4.52 41.543,59.281 65.902,97.584 24.324,38.305 75.19,137.068 81.449,148.315 6.227,11.276 -5.992,20.676 -12.787,23.49 -6.802,2.814 -10.74,5.619 -20.933,0.568 z m 33.374,53.622 -15.345,-24.134 c -3.174,-5.022 -1.526,-11.22 3.621,-13.866 l 14.627,-7.49 c 5.157,-2.623 11.612,-0.495 14.356,4.756 l 12.105,23.181 c 2.754,5.241 0.878,11.972 -4.088,14.935 l -10.459,6.227 c -4.965,2.999 -11.644,1.365 -14.817,-3.609 z m 56.476,63.303 c -3.206,-10.226 -27.685,-10.902 -38.644,-26.299 -10.995,-15.346 -1.908,-23.252 1.909,-26.901 44.45,-24.927 36.735,53.2 36.735,53.2 z m 22.873,-149.879 c 0,5.367 -4.391,9.731 -9.772,9.731 h -51.627 c -0.569,-3.001 -1.493,-6.002 -3.053,-8.816 -1.344,-2.395 -4.741,-8.854 -9.474,-17.856 -6.833,-12.993 -16.647,-31.575 -27.153,-51.144 h 91.302 c 5.382,0 9.773,4.373 9.773,9.719 v 58.366 h 0.004 z"
           id="App_Store"
           inkscape:connector-curvature="0"
           style="fill:#ffffff" />
      </g>
      <g
         id="g2989"
         style="fill:#ffffff" />
      <g
         id="g2991"
         style="fill:#ffffff" />
      <g
         id="g2993"
         style="fill:#ffffff" />
      <g
         id="g2995"
         style="fill:#ffffff" />
      <g
         id="g2997"
         style="fill:#ffffff" />
      <g
         id="g2999"
         style="fill:#ffffff" />
      <g
         id="g3001"
         style="fill:#ffffff" />
      <g
         id="g3003"
         style="fill:#ffffff" />
      <g
         id="g3005"
         style="fill:#ffffff" />
      <g
         id="g3007"
         style="fill:#ffffff" />
      <g
         id="g3009"
         style="fill:#ffffff" />
      <g
         id="g3011"
         style="fill:#ffffff" />
      <g
         id="g3013"
         style="fill:#ffffff" />
      <g
         id="g3015"
         style="fill:#ffffff" />
      <g
         id="g3017"
         style="fill:#ffffff" />
    </g>
  </g>
</svg>
