<?xml version="1.0" encoding="utf-8"?>
<!-- Generator: Adobe Illustrator 18.1.0, SVG Export Plug-In . SVG Version: 6.00 Build 0)  -->
<svg version="1.1" id="Camada_1" xmlns="http://www.w3.org/2000/svg" xmlns:xlink="http://www.w3.org/1999/xlink" x="0px" y="0px"
	 viewBox="0 0 48 48" enable-background="new 0 0 48 48" xml:space="preserve">
<g>
	<path fill="#2ECC71" d="M10.8,23.7h26.3c0.3,0,0.6-0.2,0.6-0.6c0-0.8,0-1.9-0.1-2.9c0-0.3-0.3-0.6-0.6-0.6H11.1
		c-0.3,0-0.6,0.2-0.6,0.5c-0.2,1.6-0.3,2.8-0.3,2.9c0,0.2,0,0.3,0.2,0.4C10.6,23.7,10.7,23.7,10.8,23.7z"/>
	<path fill="#333333" d="M11.2,19.2h25.5c0.2,0,0.3-0.3,0.4-0.4c0.1-0.1,0.2-0.4,0.2-0.6c-0.3-4.1-1.4-11.2-4.7-12
		c-1.4-0.3-3-0.5-4.8-0.6c-2.6-0.2-5.6-0.5-9.3-1.3c-0.3-0.1-0.6-0.1-0.8-0.1c-4.1,0-6.1,7.5-7.1,13.8c0,0.2,0,0.6,0.1,0.7
		C10.8,18.9,11,19.2,11.2,19.2z"/>
	<g>
		<path fill="#333333" d="M34.6,42L34.6,42L34.6,42c0,0-0.3,0-0.4,0l0,0l0,0c0.1,0,0.1-0.1,0-0.1c-0.2-0.1-0.4-0.1-0.7-0.2l0,0
			c-0.8-0.4-1.5-0.6-2.4-0.9H31c-0.3-0.1-0.6-0.2-0.8-0.3c-0.6-0.2-1.2-0.4-1.7-0.6c-0.3-0.1-0.7-0.3-1.1-0.2
			c-0.5-0.1-0.9-0.2-1.3-0.3c-0.4-0.1-0.9-0.1-1.3,0c-0.1,0,0,0.1,0,0.1c0.2-0.1,0.5-0.1,0.7,0v0.1c-0.3-0.1-0.6-0.1-1-0.1
			c-0.1,0-0.4,0-0.7,0c-0.2-0.1-0.6,0-0.7,0c-0.3,0-0.6,0-1,0.1v-0.1c0.2,0,0.5,0,0.7,0c0.1,0,0.1-0.1,0-0.1c-0.4-0.1-0.9,0-1.3,0
			c-0.5,0.1-0.9,0.2-1.3,0.3c-0.3-0.1-0.8,0.2-1.1,0.2c-0.6,0.2-1.2,0.4-1.7,0.6c-0.3,0.1-0.6,0.2-0.8,0.3h-0.1
			c-0.8,0.2-1.6,0.5-2.4,0.9l0,0c-0.2,0.1-0.4,0.1-0.6,0.2c-0.1,0,0,0.1,0,0.1l0,0l0,0c-0.1,0-0.4,0-0.4,0l0,0l0,0
			c-0.1,0-0.1,0.1,0,0.1s0.1,0,0.2,0c0,0,0,0,0,0.1c0.1,0,0.1,0.1,0.2,0.1c0,0,0,0.1,0.1,0.1h0.1c0.4,0.2,0.8,0.3,1.2,0.4
			c0.2,0.1,0.4,0.2,0.6,0.3c0.5,0.2,1.1,0.2,1.6,0.3c0.1,0,0.1,0,0.2,0l0,0l0,0c-0.4,0.1-0.9,0.1-1.2,0c-0.1,0-0.1,0.1,0,0.1
			c0.4,0.1,0.9,0,1.2,0l0,0c-0.1,0-0.1,0.1,0,0.1c0.7,0,1.3-0.1,2-0.2c0.2,0.1,0.6,0,0.8,0c0.1,0,0.1,0,0.2,0l0,0
			c-0.3,0.1-0.6,0.1-0.9,0.2c-0.1,0,0,0.1,0,0.1c1-0.2,1.8-0.4,2.7-0.8c0.4-0.2,0.9-0.4,1.2-0.7c-0.6,0.5-1.2,0.8-1.7,1.1
			c-0.1,0,0,0.1,0,0.1c0.6-0.3,1.5-0.8,2.1-1.3c0.5,0.7,1.5,1.1,2.1,1.3c0.1,0,0.1-0.1,0-0.1c-0.5-0.3-1.2-0.6-1.7-1.1
			c0.4,0.3,1,0.5,1.2,0.7c0.9,0.4,1.7,0.6,2.7,0.8c0.1,0,0.1-0.1,0-0.1c-0.3-0.1-0.6-0.1-0.9-0.2l0,0c0.1,0,0.1,0,0.2,0
			c0.2,0,0.6,0.1,0.8,0c0.7,0.1,1.3,0.2,2,0.2c0.1,0,0.1-0.1,0-0.1l0,0c0.4,0.1,0.9,0.1,1.2,0c0.1,0,0-0.1,0-0.1
			c-0.4,0.1-0.8,0-1.2,0l0,0l0,0c0.1,0,0.1,0,0.2,0c0.6,0,1.1-0.1,1.6-0.3c0.2-0.1,0.4-0.2,0.6-0.3c0.4-0.1,0.8-0.2,1.2-0.4h0.1
			c0.1,0,0.1,0,0.1-0.1c0.1,0,0.1-0.1,0.2-0.1c0,0,0,0,0-0.1c0.1,0,0.1,0,0.2,0C34.7,42.1,34.7,42,34.6,42z M32.6,41.6
			c0.2,0.1,0.5,0.2,0.7,0.3c0,0,0.1,0,0.1-0.1c0.2,0,0.3,0.1,0.5,0.1c-0.2,0-0.4-0.1-0.6-0.1C33,41.8,32.8,41.7,32.6,41.6L32.6,41.6
			z M32.1,42.1c-0.2,0-0.4-0.1-0.6-0.1l0,0c-0.1,0-0.2-0.1-0.3-0.1v-0.1C31.6,42,31.8,42,32.1,42.1L32.1,42.1z M31,42.5
			c-0.1,0-0.2,0-0.3-0.1h0.1l0,0c0.1,0.1,0.2,0.1,0.4,0.2c0,0-0.1,0-0.1,0.1C31.1,42.6,31.1,42.5,31,42.5z M31.1,42.3L31.1,42.3
			c0.2,0,0.3,0.1,0.4,0.1c-0.1,0-0.1,0-0.2,0l0,0C31.3,42.4,31.2,42.4,31.1,42.3z M31.2,43c0.1,0,0.2,0,0.3,0c0,0,0,0,0.1,0
			C31.5,43,31.4,43,31.2,43L31.2,43z M31,41.6c0.1,0,0.2,0.1,0.3,0.1c0,0,0,0-0.1,0C31.1,41.6,31,41.6,31,41.6L31,41.6z M30.1,41.2
			c0.1,0,0.2,0.1,0.3,0.1h-0.1C30.3,41.3,30.2,41.3,30.1,41.2L30.1,41.2L30.1,41.2z M30.1,42.7L30.1,42.7L30.1,42.7
			c-0.1,0-0.1,0-0.2,0l0,0C30,42.6,30.1,42.6,30.1,42.7z M29.2,42.4c0.2,0,0.3,0.1,0.5,0.1c0,0,0.1,0,0.1,0.1l0,0
			C29.6,42.6,29.4,42.5,29.2,42.4C29.2,42.5,29.1,42.5,29.2,42.4C29.1,42.4,29.1,42.4,29.2,42.4C29.1,42.4,29.1,42.4,29.2,42.4z
			 M29.7,42.7L29.7,42.7c-0.1,0-0.1,0-0.2,0C29.6,42.7,29.7,42.7,29.7,42.7z M29.1,40.4L29.1,40.4h-0.2C29,40.4,29,40.4,29.1,40.4z
			 M29,40.8L29,40.8L29,40.8c0,0-0.1,0-0.2-0.1C28.8,40.7,28.9,40.7,29,40.8z M28.9,42.6c-0.2,0-0.4-0.1-0.5-0.1l0,0
			C28.6,42.5,28.7,42.5,28.9,42.6C28.9,42.5,28.9,42.5,28.9,42.6z M27.8,40.8c0.2,0.1,0.4,0.1,0.5,0.2l0,0c-0.4-0.1-0.8-0.3-1.2-0.4
			c-0.1-0.1-0.3-0.1-0.4-0.2c0.1,0,0.2,0.1,0.2,0.1C27.4,40.7,27.6,40.7,27.8,40.8z M28.4,41.5L28.4,41.5c-0.1-0.1-0.2-0.2-0.3-0.3
			c0.1,0,0.2,0.1,0.2,0.1S28.3,41.3,28.4,41.5C28.4,41.4,28.4,41.5,28.4,41.5z M27.5,41.4c-0.1,0-0.1,0-0.2-0.1
			c-0.1-0.1-0.2-0.1-0.3-0.2c0.1,0,0.1,0,0.2,0.1C27.3,41.3,27.4,41.4,27.5,41.4s0.2,0,0.2,0c0.1,0,0.2,0.1,0.3,0.1
			c-0.1,0-0.2,0-0.3,0l0,0C27.6,41.4,27.5,41.4,27.5,41.4z M27.6,41.8C27.6,41.7,27.5,41.7,27.6,41.8c-0.2-0.1-0.4-0.2-0.6-0.3l0,0
			c0.1,0,0.1,0.1,0.2,0.1C27.4,41.6,27.5,41.7,27.6,41.8z M27.4,41c-0.1-0.2-0.5-0.2-0.7-0.3h-0.1c0.1,0,0.3,0.1,0.4,0.1
			c0.2,0.1,0.5,0.2,0.8,0.3c0,0.1,0.1,0.1,0.1,0.2C27.6,41.2,27.6,41.1,27.4,41z M26.6,39.6c0.3,0.1,0.6,0.1,1,0.2l0,0l0,0
			c-0.1,0-0.2-0.1-0.3-0.1C27,39.7,26.8,39.6,26.6,39.6L26.6,39.6z M26.4,40.4C26.4,40.5,26.4,40.5,26.4,40.4
			C26.4,40.5,26.5,40.5,26.4,40.4c0,0.1-0.1,0-0.2,0c-0.1-0.1-0.3-0.2-0.4-0.3C26,40.2,26.2,40.4,26.4,40.4z M26.1,40.9
			c-0.1-0.1-0.2-0.1-0.4-0.2c0,0,0.1,0,0.1,0.1C26,40.8,26.1,40.8,26.1,40.9z M26.4,41.4C26.4,41.4,26.5,41.4,26.4,41.4
			c0,0.1-0.1,0-0.2,0c-0.2-0.2-0.5-0.3-0.7-0.5C25.9,41.1,26.2,41.2,26.4,41.4z M25.1,41.2c0.1,0.1,0.3,0.2,0.4,0.3
			c-0.2-0.1-0.4-0.2-0.6-0.3c0,0,0,0-0.1-0.1c0-0.1,0-0.1,0-0.2c0,0.1,0.1,0.1,0.1,0.2C25,41.2,25.1,41.2,25.1,41.2z M25.1,40.4
			c0.1,0.1,0.2,0.1,0.3,0.2C25.2,40.6,25.2,40.5,25.1,40.4C25.2,40.4,25.1,40.4,25.1,40.4z M25.3,41.2c0.3,0.2,0.7,0.3,1,0.5
			c-0.1,0-0.2-0.1-0.3-0.1c-0.1-0.1-0.2-0.1-0.3-0.2C25.5,41.3,25.4,41.3,25.3,41.2z M25.9,41.3C25.8,41.3,25.8,41.3,25.9,41.3
			c-0.3-0.1-0.6-0.3-0.8-0.4h0.1l0,0C25.4,41,25.6,41.1,25.9,41.3z M25.2,39.6c0.1,0,0.1,0,0.2,0l0,0c-0.2,0-0.4-0.1-0.6-0.1h-0.1
			C25.1,39.6,25.2,39.6,25.2,39.6z M24.8,39.8C24.8,39.8,24.9,39.8,24.8,39.8C24.9,39.8,24.9,39.8,24.8,39.8
			c0.2,0.1,0.3,0.1,0.4,0.2c0,0,0,0,0,0.1c0,0,0,0.1,0.1,0.1l0,0C25.2,40,25,40,24.8,39.8L24.8,39.8L24.8,39.8z M24.7,39.8
			L24.7,39.8L24.7,39.8L24.7,39.8z M24.4,41.9C24.4,42,24.4,42,24.4,41.9C24.3,41.9,24.3,41.8,24.4,41.9
			C24.3,41.8,24.3,41.9,24.4,41.9L24.4,41.9L24.4,41.9z M24,41.9C24,41.9,24,41.8,24,41.9c-0.1-0.1,0-0.2,0-0.2l0,0l0,0
			C24,41.7,24.1,41.8,24,41.9C24.1,41.8,24,41.9,24,41.9z M23.6,41.9L23.6,41.9C23.7,41.9,23.7,41.8,23.6,41.9
			C23.7,41.9,23.7,41.9,23.6,41.9C23.6,42,23.6,42,23.6,41.9L23.6,41.9z M23.3,39.8L23.3,39.8C23.4,39.8,23.4,39.8,23.3,39.8
			L23.3,39.8z M23.2,39.8L23.2,39.8c-0.2,0.1-0.4,0.2-0.5,0.3l0,0l0.1-0.1v-0.1C22.9,39.9,23.1,39.8,23.2,39.8
			C23.1,39.8,23.1,39.8,23.2,39.8L23.2,39.8L23.2,39.8z M22.9,41.2L22.9,41.2c0.2-0.1,0.2-0.1,0.2-0.2c0,0.1,0,0.1,0,0.2
			C23.1,41.2,23.1,41.2,22.9,41.2c-0.1,0.2-0.3,0.3-0.5,0.4C22.7,41.4,22.8,41.3,22.9,41.2z M22.4,41.4c-0.1,0.1-0.2,0.1-0.3,0.2
			c-0.1,0-0.2,0.1-0.3,0.1c0.3-0.2,0.6-0.4,1-0.5C22.6,41.3,22.5,41.3,22.4,41.4z M22.8,40.5c-0.1,0-0.2,0.1-0.3,0.1
			C22.7,40.5,22.8,40.5,22.8,40.5C22.9,40.4,22.9,40.4,22.8,40.5z M22.8,39.6c0,0,0.3,0,0.5,0h-0.1c-0.2,0-0.4,0-0.6,0.1l0,0
			C22.7,39.7,22.7,39.7,22.8,39.6z M22.8,40.9L22.8,40.9c0.1,0,0.1,0,0.2,0c-0.3,0.1-0.5,0.2-0.8,0.4l0,0
			C22.4,41.1,22.6,41,22.8,40.9z M21.6,40.5L21.6,40.5c0.2-0.1,0.5-0.3,0.7-0.3c-0.1,0.1-0.3,0.2-0.4,0.3
			C21.7,40.5,21.6,40.5,21.6,40.5L21.6,40.5z M22.2,40.7c-0.1,0.1-0.3,0.2-0.4,0.2C21.9,40.8,22,40.8,22.2,40.7
			C22.2,40.7,22.2,40.7,22.2,40.7z M21.6,41.4c0.3-0.1,0.6-0.3,0.9-0.5c-0.2,0.2-0.5,0.3-0.7,0.5C21.7,41.4,21.6,41.5,21.6,41.4
			C21.5,41.4,21.5,41.4,21.6,41.4z M21.4,39.6L21.4,39.6c-0.2,0-0.4,0.1-0.6,0.2c-0.1,0-0.2,0.1-0.3,0.1l0,0l0,0
			C20.7,39.7,21.1,39.7,21.4,39.6z M20.7,41.4c-0.1,0-0.1,0-0.2,0.1h-0.1l0,0c-0.1,0-0.2,0-0.3,0c0.1,0,0.2-0.1,0.3-0.1
			c0,0,0.1,0.1,0.1,0c0.1-0.1,0.2-0.1,0.3-0.2c0.1,0,0.1,0,0.2-0.1C20.9,41.2,20.8,41.3,20.7,41.4z M21,41.4
			c-0.2,0.1-0.3,0.2-0.5,0.3h-0.1c0.1-0.1,0.2-0.1,0.3-0.2C20.8,41.5,20.9,41.5,21,41.4L21,41.4z M20.6,41c-0.2,0.1-0.4,0.1-0.6,0.2
			c0.1-0.1,0.1-0.1,0.1-0.2c0.3-0.1,0.5-0.2,0.8-0.3c0.1,0,0.3-0.1,0.4-0.1h-0.1C21.1,40.8,20.8,40.8,20.6,41z M19.7,41
			c0.2-0.1,0.4-0.1,0.5-0.2c0.3-0.1,0.6-0.2,0.8-0.3c0.1,0,0.2-0.1,0.2-0.1c-0.1,0.1-0.3,0.1-0.4,0.2C20.4,40.7,20,40.9,19.7,41
			C19.6,41,19.6,41,19.7,41z M19.7,41.4C19.7,41.4,19.7,41.3,19.7,41.4c0.1-0.1,0.2-0.1,0.3-0.2C19.9,41.3,19.8,41.4,19.7,41.4
			L19.7,41.4C19.6,41.5,19.6,41.4,19.7,41.4z M19,40.8L19,40.8L19,40.8c0.1-0.1,0.2-0.1,0.2-0.1C19.1,40.7,19.1,40.8,19,40.8z
			 M19.6,42.4L19.6,42.4c-0.2,0.1-0.3,0.1-0.5,0.1c0,0,0,0,0.1,0C19.3,42.5,19.4,42.5,19.6,42.4z M19.1,40.3
			C19.1,40.4,19.1,40.4,19.1,40.3c-0.1,0-0.2,0.1-0.2,0.1C19,40.4,19.1,40.4,19.1,40.3z M18.4,42.5c0.2,0,0.3-0.1,0.5-0.1
			c0,0,0,0,0,0.1l0,0h-0.1C18.6,42.5,18.4,42.6,18.4,42.5L18.4,42.5C18.3,42.5,18.3,42.5,18.4,42.5z M18.4,42.7
			C18.4,42.7,18.3,42.7,18.4,42.7L18.4,42.7C18.3,42.7,18.4,42.7,18.4,42.7z M17.9,41.2L17.9,41.2L17.9,41.2c-0.1,0-0.1,0.1-0.2,0.1
			h-0.1C17.6,41.3,17.8,41.3,17.9,41.2z M18,42.6L18,42.6c-0.1,0-0.1,0.1-0.2,0.1l0,0l0,0C17.9,42.6,18,42.6,18,42.6z M17,41.6
			L17,41.6c0,0-0.1,0.1-0.2,0.1c0,0,0,0-0.1,0C16.8,41.6,16.9,41.6,17,41.6z M17,42.6C16.9,42.6,16.9,42.6,17,42.6
			c0-0.1,0.1-0.2,0.3-0.2l0,0h0.1C17.3,42.4,17.2,42.4,17,42.6C16.9,42.5,16.9,42.6,17,42.6z M16.7,42.5L16.7,42.5
			c-0.1,0-0.1,0-0.2,0c0.1,0,0.3-0.1,0.4-0.1l0,0C16.8,42.4,16.8,42.4,16.7,42.5z M16.8,43c-0.1,0-0.3,0-0.4-0.1c0,0,0,0,0.1,0
			C16.6,43,16.7,43,16.8,43L16.8,43z M15.9,42.1c0.3-0.1,0.5-0.2,0.8-0.2V42c-0.1,0-0.2,0.1-0.3,0.1l0,0C16.3,42,16,42.1,15.9,42.1
			L15.9,42.1z M14.6,41.8C14.6,41.9,14.7,41.9,14.6,41.8c0.3,0,0.5-0.1,0.8-0.2l0,0C15.2,41.7,15,41.8,14.6,41.8
			c-0.1,0.1-0.3,0.1-0.5,0.2C14.3,41.9,14.5,41.9,14.6,41.8z M13.9,42.3L13.9,42.3c-0.1,0-0.2-0.1-0.2-0.1c0.2,0,0.4,0,0.5,0.1
			C14.1,42.3,14,42.3,13.9,42.3z M14.5,42.6C14.5,42.6,14.6,42.6,14.5,42.6c0.1,0,0.2,0,0.3,0.1c0,0,0.1,0,0.1,0.1
			C14.8,42.7,14.7,42.6,14.5,42.6z M15.2,42.7L15.2,42.7C15.1,42.7,15.1,42.7,15.2,42.7c0.4,0,0.8,0.1,1.2,0.2l0,0l0,0
			C15.8,42.9,15.5,42.8,15.2,42.7z M16.1,43.1c-0.3-0.1-0.5-0.1-0.7-0.2c0.5,0.1,1,0.2,1.3,0.2v0.1c0,0,0.1,0,0.1,0.1
			C16.6,43.2,16.3,43.2,16.1,43.1z M17,43c0.1,0,0.2,0,0.3,0l0,0l0,0C17.1,43.1,17,43.1,17,43C16.9,43,17,43,17,43z M17.2,43.3
			c0.1,0,0.2,0,0.3,0l0,0l0,0C17.4,43.3,17.3,43.3,17.2,43.3z M17.5,42.7c-0.1,0-0.3,0.1-0.4,0.1l0,0C17.1,42.7,17.3,42.6,17.5,42.7
			C17.5,42.6,17.6,42.6,17.5,42.7C17.6,42.6,17.6,42.6,17.5,42.7C17.5,42.6,17.5,42.6,17.5,42.7z M17.2,41.7
			C17.2,41.7,17.1,41.6,17.2,41.7C17.1,41.7,17.1,41.7,17.2,41.7c0.1-0.1,0.3-0.2,0.5-0.2h0.1C17.6,41.5,17.4,41.6,17.2,41.7z
			 M17.9,42.8L17.9,42.8C18,42.8,18,42.8,17.9,42.8C17.9,42.8,17.9,42.8,17.9,42.8C17.8,42.8,17.8,42.8,17.9,42.8z M18,43.2
			c0.3,0,0.5-0.1,0.8-0.1c0.1,0,0.1,0,0.2,0c-0.2,0.1-0.4,0.1-0.6,0.2c-0.2,0-0.4,0-0.6,0C17.9,43.3,18,43.3,18,43.2z M18.2,43.4
			L18.2,43.4c0.2,0,0.3,0,0.4,0C18.5,43.4,18.3,43.4,18.2,43.4z M19.9,43.1C19.9,43.1,19.8,43.1,19.9,43.1c-0.3,0-0.7,0.1-1,0.1
			c0.1,0,0.3-0.1,0.4-0.1C19.5,43.1,19.7,43.1,19.9,43.1L19.9,43.1z M19.7,42.3c-0.1,0-0.2,0.1-0.3,0.1
			C19.5,42.3,19.6,42.3,19.7,42.3c0.1-0.1,0.1-0.1,0.2-0.1c0,0,0,0,0.1,0C19.9,42.2,19.8,42.2,19.7,42.3z M20,42L20,42L20,42
			c0.2-0.1,0.2-0.1,0.3-0.1c0,0,0,0-0.1,0c0,0,0,0,0,0.1C20.1,42,20.1,42,20,42z M20.3,42.8c0.1,0,0.1,0,0.2-0.1c0,0,0,0,0.1,0l0,0
			l0,0C20.4,42.8,20.4,42.8,20.3,42.8z M20.3,42.6C20.3,42.6,20.3,42.5,20.3,42.6C20.2,42.6,20.2,42.6,20.3,42.6
			C20.2,42.5,20.2,42.5,20.3,42.6c0.2-0.1,0.4-0.1,0.6-0.2c-0.1,0-0.1,0.1-0.2,0.1S20.4,42.5,20.3,42.6z M20.9,42.6
			C20.9,42.6,20.9,42.7,20.9,42.6c0.1,0,0.2,0,0.2,0l0,0c-0.2,0-0.3,0.1-0.5,0.1C20.8,42.7,20.8,42.7,20.9,42.6z M21.2,42.9
			L21.2,42.9C21.1,43,21.1,43,21,43h-0.1c0,0,0,0-0.1,0c0,0,0,0-0.1,0c0,0,0-0.1-0.1-0.1c0,0,0,0-0.1,0l0,0h0.1c0,0.1,0.1,0.1,0.1,0
			C21,42.9,21.1,42.9,21.2,42.9C21.2,42.8,21.3,42.8,21.2,42.9C21.3,42.8,21.2,42.8,21.2,42.9z M21,42.2c-0.2,0-0.3,0.1-0.5,0.1
			c0,0,0.1,0,0.1-0.1c0.2-0.1,0.5-0.2,0.7-0.3C21.3,42,21.2,42.1,21,42.2z M21.5,42.2L21.5,42.2c0.1,0,0.3-0.1,0.4-0.1l0,0l0,0
			c-0.1,0-0.1,0-0.1,0C21.7,42.2,21.5,42.2,21.5,42.2C21.4,42.2,21.5,42.2,21.5,42.2z M21.7,42.8L21.7,42.8l0.2-0.1
			C21.8,42.7,21.8,42.8,21.7,42.8z M21.6,42.5C21.6,42.6,21.6,42.6,21.6,42.5c0.1-0.1,0.3-0.2,0.5-0.4l0,0
			C22,42.3,21.8,42.4,21.6,42.5z M21.9,42c0.3-0.2,0.6-0.3,1-0.5c0,0,0,0,0,0.1c-0.2,0.1-0.4,0.3-0.6,0.4C22.1,42,22,42,21.9,42z
			 M22.2,42.9C22.2,42.9,22.2,42.8,22.2,42.9C22.2,42.8,22.2,42.8,22.2,42.9C22.3,42.8,22.3,42.8,22.2,42.9
			C22.3,42.9,22.2,42.9,22.2,42.9z M22.2,42.4L22.2,42.4c0.1-0.1,0.2-0.2,0.3-0.2C22.4,42.3,22.3,42.4,22.2,42.4z M22.5,42.5
			c0.1,0,0.1-0.1,0.2-0.2C22.6,42.4,22.6,42.4,22.5,42.5L22.5,42.5z M23.2,42.4c-0.2,0.1-0.4,0.2-0.6,0.3l0.1-0.1l0,0
			C22.9,42.5,23.1,42.4,23.2,42.4c0.1-0.1,0.1-0.1,0.2-0.1l0,0c0.1-0.1,0.2-0.1,0.2-0.2l0,0c0,0,0.1,0.1,0.1,0
			C23.6,42.2,23.4,42.3,23.2,42.4z M23.8,42C23.8,42,23.8,42,23.8,42C23.9,41.9,23.9,41.9,23.8,42C23.9,42,23.9,42,23.8,42z
			 M24.1,42C24.1,41.9,24.1,41.9,24.1,42C24.1,42,24.2,42,24.1,42L24.1,42z M24.8,42.4c-0.2-0.1-0.4-0.2-0.5-0.3h0.1l0,0
			c0.1,0.1,0.2,0.1,0.2,0.2l0,0C24.7,42.2,24.7,42.3,24.8,42.4c0.1,0,0.3,0.1,0.5,0.2l0,0l0.1,0.1C25.2,42.6,25,42.5,24.8,42.4z
			 M25.5,42.4L25.5,42.4C25.4,42.4,25.5,42.4,25.5,42.4C25.5,42.5,25.5,42.5,25.5,42.4z M25.5,42.2c0.1,0.1,0.2,0.1,0.3,0.2l0,0
			C25.7,42.4,25.6,42.3,25.5,42.2z M25.7,42.8L25.7,42.8C25.8,42.8,25.8,42.8,25.7,42.8C25.8,42.8,25.8,42.9,25.7,42.8
			C25.8,42.9,25.7,42.9,25.7,42.8z M25.2,41.6C25.2,41.6,25.2,41.5,25.2,41.6c0.3,0.1,0.6,0.3,0.9,0.4c-0.1,0-0.2,0-0.3-0.1
			C25.6,41.8,25.4,41.7,25.2,41.6z M26.1,42.7L26.1,42.7l0.2,0.1C26.3,42.8,26.2,42.7,26.1,42.7z M26.4,42.5
			c-0.2-0.1-0.3-0.2-0.5-0.4l0,0C26.1,42.3,26.3,42.4,26.4,42.5C26.4,42.6,26.4,42.6,26.4,42.5z M26.2,42.1L26.2,42.1
			C26.1,42.1,26.1,42.1,26.2,42.1C26.1,42.1,26.1,42.1,26.2,42.1c0.1,0,0.2,0,0.3,0.1l0,0l0.1,0.1C26.5,42.2,26.3,42.2,26.2,42.1z
			 M27.3,42.2C27.3,42.2,27.4,42.2,27.3,42.2c-0.1,0.1-0.2,0-0.4,0c-0.1-0.1-0.2-0.1-0.3-0.2C26.9,42,27.1,42.1,27.3,42.2z M27.3,43
			C27.2,43,27.2,43,27.3,43C27.2,43,27.2,43,27.3,43c-0.1,0-0.1,0-0.2,0H27c-0.1,0-0.1,0-0.2,0v-0.1c0,0-0.1,0-0.1-0.1h0.1
			c0.1,0.1,0.2,0.1,0.2,0.2C27.1,43,27.2,43,27.3,43C27.2,43,27.3,43,27.3,43L27.3,43L27.3,43z M26.9,42.6
			C26.9,42.6,26.8,42.6,26.9,42.6c0,0,0.1,0,0.2,0l0,0c0.1,0,0.2,0.1,0.3,0.1C27.2,42.7,27,42.7,26.9,42.6z M27.6,42.8L27.6,42.8
			C27.6,42.7,27.6,42.7,27.6,42.8C27.6,42.8,27.6,42.8,27.6,42.8c0.2,0,0.2,0,0.3,0.1C27.6,42.8,27.6,42.8,27.6,42.8z M27.8,42.5
			C27.7,42.5,27.7,42.6,27.8,42.5c-0.2,0-0.3,0-0.5-0.1c-0.1,0-0.1-0.1-0.2-0.1C27.4,42.4,27.6,42.5,27.8,42.5L27.8,42.5
			C27.8,42.6,27.8,42.6,27.8,42.5z M27.8,42C27.8,42,27.7,42,27.8,42C27.8,42,27.8,42,27.8,42L28,42l0,0C28,42,27.9,42,27.8,42
			C27.8,42,27.8,42,27.8,42z M28.1,42.1c0.1,0,0.1,0,0.2,0c0.1,0.1,0.2,0.1,0.3,0.2c-0.1,0-0.2-0.1-0.3-0.1
			C28.2,42.2,28.1,42.2,28.1,42.1C28,42.1,28.1,42.1,28.1,42.1z M28.2,43.1L28.2,43.1C28.1,43.1,28.1,43.1,28.2,43.1s0.3,0,0.5,0
			c0.1,0,0.3,0.1,0.4,0.1C28.8,43.2,28.5,43.2,28.2,43.1z M29.4,43.4c0.1,0,0.2,0,0.3,0h0.1C29.7,43.4,29.5,43.4,29.4,43.4z
			 M29.7,43.3c-0.2-0.1-0.4-0.1-0.6-0.2c0.1,0,0.1,0,0.2,0c0.2,0.1,0.5,0.1,0.8,0.1c0.1,0,0.2,0,0.2,0.1
			C30,43.3,29.9,43.3,29.7,43.3z M30,42.8L30,42.8C30,42.7,30.1,42.8,30,42.8c0.1,0,0.1,0,0.2,0.1C30.2,42.8,30.1,42.8,30,42.8z
			 M30.2,41.4L30.2,41.4c0.3,0.1,0.5,0.1,0.7,0.2l0,0c0,0,0,0-0.1,0C30.6,41.6,30.4,41.5,30.2,41.4z M30.4,42.6
			C30.4,42.6,30.5,42.6,30.4,42.6C30.5,42.5,30.5,42.6,30.4,42.6c0.3,0.1,0.4,0.1,0.6,0.2l0,0c-0.1,0-0.3-0.1-0.4-0.1
			C30.5,42.6,30.5,42.6,30.4,42.6z M30.5,43.3L30.5,43.3C30.5,43.2,30.5,43.2,30.5,43.3c0.1,0,0.2,0,0.3,0
			C30.7,43.3,30.6,43.3,30.5,43.3z M30.8,43.1L30.8,43.1C30.8,43.1,30.8,43,30.8,43.1C30.9,43,31,43,31.1,43c0,0,0,0,0.1,0
			C31,43.1,30.9,43.1,30.8,43.1z M31.9,43.1c-0.2,0.1-0.5,0.1-0.8,0.2c0,0,0.1,0,0.1-0.1v-0.1c0.5-0.1,1-0.1,1.3-0.2
			C32.4,43,32.2,43.1,31.9,43.1z M32.9,42.7c-0.4,0.1-0.8,0.1-1.1,0.2l0,0l0,0C32.2,42.8,32.4,42.8,32.9,42.7
			C32.9,42.6,33,42.6,32.9,42.7C32.9,42.7,32.9,42.7,32.9,42.7z M33,42.7C33,42.7,33.1,42.7,33,42.7c0.2-0.1,0.3-0.1,0.4-0.2
			c0,0,0,0,0.1,0C33.3,42.6,33.2,42.7,33,42.7z M34.2,42.3C34.1,42.3,34.1,42.3,34.2,42.3c-0.2,0-0.2,0-0.3,0c0.2,0,0.4-0.1,0.5-0.1
			C34.3,42.2,34.2,42.2,34.2,42.3z"/>
	</g>
	<path fill="#333333" d="M10.5,24.9c0,0-10.7,0.8-10.5,5.5s47.1-1.8,47.9-3.4c0.8-1.5-4.8-2.4-10.2-2.6
		C37.2,24.3,20.4,24.1,10.5,24.9z"/>
</g>
</svg>
