<?xml version="1.0" encoding="UTF-8" standalone="no"?>
<!-- Created with Inkscape (http://www.inkscape.org/) -->

<svg
   xmlns:dc="http://purl.org/dc/elements/1.1/"
   xmlns:cc="http://creativecommons.org/ns#"
   xmlns:rdf="http://www.w3.org/1999/02/22-rdf-syntax-ns#"
   xmlns:svg="http://www.w3.org/2000/svg"
   xmlns="http://www.w3.org/2000/svg"
   xmlns:sodipodi="http://sodipodi.sourceforge.net/DTD/sodipodi-0.dtd"
   xmlns:inkscape="http://www.inkscape.org/namespaces/inkscape"
   id="svg2"
   version="1.1"
   inkscape:version="0.48.4 r9939"
   width="1000"
   height="1000"
   xml:space="preserve"
   sodipodi:docname="professor.svg"><metadata
     id="metadata8"><rdf:RDF><cc:Work
         rdf:about=""><dc:format>image/svg+xml</dc:format><dc:type
           rdf:resource="http://purl.org/dc/dcmitype/StillImage" /><dc:title></dc:title></cc:Work></rdf:RDF></metadata><defs
     id="defs6"><clipPath
       clipPathUnits="userSpaceOnUse"
       id="clipPath18"><path
         d="M 0,800 800,800 800,0 0,0 0,800 z"
         id="path20" /></clipPath><clipPath
       clipPathUnits="userSpaceOnUse"
       id="clipPath168"><path
         d="M 0,800 800,800 800,0 0,0 0,800 z"
         id="path170" /></clipPath></defs><sodipodi:namedview
     pagecolor="#ffffff"
     bordercolor="#666666"
     borderopacity="1"
     objecttolerance="10"
     gridtolerance="10"
     guidetolerance="10"
     inkscape:pageopacity="0"
     inkscape:pageshadow="2"
     inkscape:window-width="1366"
     inkscape:window-height="709"
     id="namedview4"
     showgrid="false"
     inkscape:zoom="0.6675088"
     inkscape:cx="378.36599"
     inkscape:cy="639.06384"
     inkscape:window-x="0"
     inkscape:window-y="27"
     inkscape:window-maximized="1"
     inkscape:current-layer="g166" /><g
     id="g10"
     inkscape:groupmode="layer"
     inkscape:label="professor"
     transform="matrix(1.25,0,0,-1.25,0,1000)"><g
       id="g14"><g
         id="g16"
         clip-path="url(#clipPath18)"><path
           d="m 462,445 -412,0 0,293 412,0 0,-293 z"
           style="fill:#cc4d3c;fill-opacity:1;fill-rule:nonzero;stroke:none"
           id="path150" /><path
           d="m 441,459 -370,0 0,265 370,0 0,-265 z"
           style="fill:#00b089;fill-opacity:1;fill-rule:nonzero;stroke:none"
           id="path152" /><g
           id="g154"
           transform="translate(475,433)"><path
             d="m 0,0 c 0,-2.209 -1.791,-4 -4,-4 l -429,0 c -2.209,0 -4,1.791 -4,4 l 0,19 c 0,2.209 1.791,4 4,4 l 429,0 c 2.209,0 4,-1.791 4,-4 L 0,0 z"
             style="fill:#cc4d3c;fill-opacity:1;fill-rule:nonzero;stroke:none"
             id="path156" /></g><g
           id="g158"
           transform="translate(147,460)"><path
             d="m 0,0 c 0,-2.209 -1.791,-4 -4,-4 l -37,0 c -2.209,0 -4,1.791 -4,4 l 0,2 c 0,2.209 1.791,4 4,4 L -4,6 C -1.791,6 0,4.209 0,2 L 0,0 z"
             style="fill:#ffffff;fill-opacity:1;fill-rule:nonzero;stroke:none"
             id="path160" /></g></g></g><path
       d="m 597,488 52,0 0,22 -52,0 0,-22 z"
       style="fill:#f3eee1;fill-opacity:1;fill-rule:nonzero;stroke:none"
       id="path162" /><g
       id="g164"><g
         id="g166"
         clip-path="url(#clipPath168)"><g
           id="g172"
           transform="translate(576,541.25)"><path
             d="m 0,0 c 0,-24.991 21.377,-45.25 47.191,-45.25 l 0.516,0 C 73.521,-45.25 94,-24.991 94,0 l 0,40.5 C 94,65.491 73.521,75.75 47.707,75.75 l -0.516,0 C 21.377,75.75 0,65.491 0,40.5 L 0,0 z"
             style="fill:#f3eee1;fill-opacity:1;fill-rule:nonzero;stroke:none"
             id="path174" /></g><g
           id="g176"
           transform="translate(635,518.6665)"><path
             d="m 0,0 c 0,0.736 -0.598,1.333 -1.334,1.333 l -22.332,0 C -24.402,1.333 -25,0.736 -25,0 l 0,-0.333 c 0,-0.736 0.598,-1.334 1.334,-1.334 l 22.332,0 C -0.598,-1.667 0,-1.069 0,-0.333 L 0,0 z"
             style="fill:#fe7f6e;fill-opacity:1;fill-rule:nonzero;stroke:none"
             id="path178" /></g><g
           id="g180"
           transform="translate(630.5,545)"><path
             d="M 0,0 -4.5,13.167 C -4.5,14.731 -5.769,16 -7.333,16 l -0.334,0 C -9.231,16 -10.5,14.731 -10.5,13.167 L -15,0 c -2.485,0 -4.5,-2.015 -4.5,-4.5 0,-2.485 2.015,-4.5 4.5,-4.5 l 15,0 c 2.485,0 4.5,2.015 4.5,4.5 C 4.5,-2.015 2.485,0 0,0"
             style="fill:#d6ccc2;fill-opacity:1;fill-rule:nonzero;stroke:none"
             id="path182" /></g><g
           id="g184"
           transform="translate(604.4375,565.375)"><path
             d="m 0,0 c 0,-3.832 -3.106,-6.938 -6.938,-6.938 -3.831,0 -6.937,3.106 -6.937,6.938 0,3.832 3.106,6.938 6.937,6.938 C -3.106,6.938 0,3.832 0,0"
             style="fill:#ffffff;fill-opacity:1;fill-rule:nonzero;stroke:none"
             id="path186" /></g><g
           id="g188"
           transform="translate(651.4375,565.375)"><path
             d="m 0,0 c 0,-3.832 -3.106,-6.938 -6.938,-6.938 -3.831,0 -6.937,3.106 -6.937,6.938 0,3.832 3.106,6.938 6.937,6.938 C -3.106,6.938 0,3.832 0,0"
             style="fill:#ffffff;fill-opacity:1;fill-rule:nonzero;stroke:none"
             id="path190" /></g><g
           id="g192"
           transform="translate(638.1992,565.375)"><path
             d="M 0,0 C 0,-1.933 1.566,-3.5 3.5,-3.5 5.434,-3.5 7,-1.933 7,0 7,1.933 5.434,3.5 3.5,3.5 1.566,3.5 0,1.933 0,0"
             style="fill:#00616d;fill-opacity:1;fill-rule:nonzero;stroke:none"
             id="path194" /></g><g
           id="g196"
           transform="translate(591.6992,565.375)"><path
             d="M 0,0 C 0,-1.933 1.566,-3.5 3.5,-3.5 5.434,-3.5 7,-1.933 7,0 7,1.933 5.434,3.5 3.5,3.5 1.566,3.5 0,1.933 0,0"
             style="fill:#00616d;fill-opacity:1;fill-rule:nonzero;stroke:none"
             id="path198" /></g><path
           d="m 663,574 7,0 0,28 -7,0 0,-28 z"
           style="fill:#00616d;fill-opacity:1;fill-rule:nonzero;stroke:none"
           id="path200" /><path
           d="m 576,574 7,0 0,28 -7,0 0,-28 z"
           style="fill:#00616d;fill-opacity:1;fill-rule:nonzero;stroke:none"
           id="path202" /><g
           id="g204"
           transform="translate(641,624)"><path
             d="m 0,0 c 0,7.18 -5.82,13 -13,13 l -19,0 c -7.18,0 -13,-5.82 -13,-13 0,-7.18 5.82,-13 13,-13 l 19,0 c 7.18,0 13,5.82 13,13"
             style="fill:#00616d;fill-opacity:1;fill-rule:nonzero;stroke:none"
             id="path206" /></g><g
           id="g208"
           transform="translate(583.6992,617.25)"><path
             d="m 0,0 c 0,-7.732 6.268,-14 14,-14 7.732,0 14,6.268 14,14 C 28,7.732 21.732,14 14,14 6.268,14 0,7.732 0,0"
             style="fill:#00616d;fill-opacity:1;fill-rule:nonzero;stroke:none"
             id="path210" /></g><g
           id="g212"
           transform="translate(629.6992,609.25)"><path
             d="m 0,0 c 0,-7.732 6.268,-14 14,-14 7.732,0 14,6.268 14,14 C 28,7.732 21.732,14 14,14 6.268,14 0,7.732 0,0"
             style="fill:#00616d;fill-opacity:1;fill-rule:nonzero;stroke:none"
             id="path214" /></g><g
           id="g216"
           transform="translate(642.6738,607.459)"><path
             d="m 0,0 c 0,-8.721 7.169,-15.791 16.013,-15.791 8.842,0 16.012,7.07 16.012,15.791 0,8.721 -7.17,15.791 -16.012,15.791 C 7.169,15.791 0,8.721 0,0"
             style="fill:#00616d;fill-opacity:1;fill-rule:nonzero;stroke:none"
             id="path218" /></g><g
           id="g220"
           transform="translate(572.1992,607.25)"><path
             d="M 0,0 C 0,-9.113 7.387,-16.5 16.5,-16.5 25.613,-16.5 33,-9.113 33,0 33,9.113 25.613,16.5 16.5,16.5 7.387,16.5 0,9.113 0,0"
             style="fill:#00616d;fill-opacity:1;fill-rule:nonzero;stroke:none"
             id="path222" /></g><g
           id="g224"
           transform="translate(579.1992,607.25)"><path
             d="M 0,0 C 0,-9.113 7.387,-16.5 16.5,-16.5 25.613,-16.5 33,-9.113 33,0 33,9.113 25.613,16.5 16.5,16.5 7.387,16.5 0,9.113 0,0"
             style="fill:#00616d;fill-opacity:1;fill-rule:nonzero;stroke:none"
             id="path226" /></g><g
           id="g228"
           transform="translate(619.4492,626.25)"><path
             d="m 0,0 c 0,-9.113 9.141,-16.5 20.416,-16.5 11.276,0 20.417,7.387 20.417,16.5 0,9.113 -9.141,16.5 -20.417,16.5 C 9.141,16.5 0,9.113 0,0"
             style="fill:#00616d;fill-opacity:1;fill-rule:nonzero;stroke:none"
             id="path230" /></g><g
           id="g232"
           transform="translate(631.1084,496.5654)"
           style="fill:#b3b3b3;fill-opacity:0.68235296000000001"><path
             d="m 0,0 c -1.41,-0.363 -2.819,-0.565 -4.159,-0.565 l -3.242,0 -0.516,0 -3.242,0 c -1.397,0 -2.9,0.211 -4.42,0.606 -22.248,3.493 -39.529,21.917 -39.529,44.394 0,0 12.002,-9.182 26,-15.103 l 0,0.103 c 0,2.209 2.24,4 4.449,4 l 34,0 c 2.186,0 3.518,-1.756 3.546,-3.934 C 27.17,35.426 38.892,44.435 38.892,44.435 38.892,21.878 22.219,3.398 0,0 m 6.892,21.685 c 0,3.175 -2.575,5.75 -5.75,5.75 l -18.5,0 c -3.176,0 -5.75,-2.575 -5.75,-5.75 l 0,-0.5 c 0,-3.176 2.574,-5.75 5.75,-5.75 l 18.5,0 c 3.175,0 5.75,2.574 5.75,5.75 l 0,0.5 z"
             style="fill:#b3b3b3;fill-opacity:0.68235296000000001;fill-rule:nonzero;stroke:none"
             id="path234" /></g><g
           id="g236"
           transform="translate(404.2109,385.7793)"><path
             d="m 0,0 c 0,0 6.178,-2.457 19.08,0.66 l 8.006,-6.897 9.26,10.75 L 22.537,16.408 0,0 z"
             style="fill:#d6ccc2;fill-opacity:1;fill-rule:nonzero;stroke:none"
             id="path238" /></g><g
           id="g240"
           transform="translate(420.7227,397.2676)"><path
             d="m 0,0 9.631,11.177 -186.65,179.867 -3.704,-4.3 L 0,0 z"
             style="fill:#ffffff;fill-opacity:1;fill-rule:nonzero;stroke:none"
             id="path242" /></g><g
           id="g244"
           transform="translate(375.4316,410.3066)"><path
             d="m 0,0 c 1.373,-2.5 4.51,-3.412 7.008,-2.039 l 17,8.254 c 2.498,1.37 3.412,4.51 2.041,7.006 -1.373,2.5 -4.511,3.413 -7.01,2.041 l -17,-8.254 C -0.458,5.636 -1.372,2.497 0,0"
             style="fill:#d6ccc2;fill-opacity:1;fill-rule:nonzero;stroke:none"
             id="path246" /></g><g
           id="g248"
           transform="translate(383.3223,402.6299)"><path
             d="m 0,0 c 1.373,-2.498 4.51,-3.413 7.008,-2.04 l 17,8.256 c 2.5,1.371 3.412,4.508 2.039,7.007 -1.371,2.499 -4.509,3.41 -7.007,2.041 L 2.04,7.008 C -0.459,5.636 -1.372,2.498 0,0"
             style="fill:#d6ccc2;fill-opacity:1;fill-rule:nonzero;stroke:none"
             id="path250" /></g><g
           id="g252"
           transform="translate(395.4707,414.7949)"><path
             d="m 0,0 2.87,9.525 c 0.411,1.407 3.165,4.112 3.583,4.6 l 7.321,8.498 c 2.015,2.339 5.562,3.146 7.931,1.106 L 24.731,21.12 46.428,2.43 c 3.813,-3.285 5.833,-7.273 3.025,-11.219 l 5.264,-4.534 -10.186,-11.825 -9.519,8.201 -2.368,2.039 C 19.281,-3.397 15.553,9.188 15.553,9.188 c 0,0 -1.864,-2.099 -3.133,-3.977 C 11.084,3.235 9.924,-2.869 9.924,-2.869 9.127,-5.607 6.256,-7.186 3.52,-6.39 0.782,-5.593 -0.797,-2.736 0,0"
             style="fill:#f3eee1;fill-opacity:1;fill-rule:nonzero;stroke:none"
             id="path254" /></g><g
           id="g256"
           transform="translate(391.4297,395.2051)"><path
             d="m 0,0 c 1.372,-2.499 4.51,-3.411 7.008,-2.039 l 17,8.254 c 2.5,1.371 3.414,4.51 2.041,7.009 -1.372,2.499 -4.51,3.411 -7.008,2.039 l -17,-8.255 C -0.457,5.637 -1.371,2.499 0,0"
             style="fill:#d6ccc2;fill-opacity:1;fill-rule:nonzero;stroke:none"
             id="path258" /></g><g
           id="g260"
           transform="translate(400.2266,388.0684)"><path
             d="m 0,0 c 1.37,-2.498 4.508,-3.412 7.008,-2.041 l 17,8.256 c 2.497,1.371 3.411,4.509 2.039,7.008 -1.372,2.499 -4.51,3.412 -7.009,2.042 L 2.039,7.008 C -0.459,5.635 -1.373,2.499 0,0"
             style="fill:#d6ccc2;fill-opacity:1;fill-rule:nonzero;stroke:none"
             id="path262" /></g><g
           id="g264"
           transform="translate(437.4131,373.9307)"><path
             d="M 0,0 19.089,22.556 11.377,29.083 -7.712,6.528 0,0 z"
             style="fill:#ffffff;fill-opacity:1;fill-rule:nonzero;stroke:none"
             id="path266" /></g><g
           id="g268"
           transform="translate(434.1992,380.499)"><path
             d="M 0,0 C 0,-1.242 1.008,-2.25 2.25,-2.25 3.492,-2.25 4.5,-1.242 4.5,0 4.5,1.242 3.492,2.25 2.25,2.25 1.008,2.25 0,1.242 0,0"
             style="fill:#4d4d4d;fill-opacity:1;fill-rule:nonzero;stroke:none"
             id="path270" /></g><g
           id="g272"
           transform="translate(701,379)"><path
             d="M 0,0 0,-79 17.5,-57.5 0,0 z m 1.046,-135 -4.097,-244 -65,0 -11.647,183.454 -14.853,-183.454 -72,0 8.75,224 -2.166,144.615 -28.584,-53.146 -77.5,56.968 22,26.438 37.113,-28.174 37.887,85.299 65.5,28 52,0 75.5,-32.75 31.5,-136 -55,-71.25"
             style="fill:#274255;fill-opacity:1;fill-rule:nonzero;stroke:none"
             id="path274" /></g><g
           id="g276"
           transform="translate(603.4492,365)"><path
             d="M 0,0 40,0 46,123 -6,123 0,0 z"
             style="fill:#ffffff;fill-opacity:1;fill-rule:nonzero;stroke:none"
             id="path278" /></g><g
           id="g280"
           transform="translate(612.4492,363)"><path
             d="M 0,0 10.833,-50 21,0 17,103 4,103 0,0 z"
             style="fill:#634f68;fill-opacity:1;fill-rule:nonzero;stroke:none"
             id="path282" /></g><g
           id="g284"
           transform="translate(649.4492,484)"
           style="fill:#6f918a"><path
             d="m 0,0 21,-21 -6.5,-19 12,-8.5 L -26.167,-173 0,0 z"
             style="fill:#6f918a;fill-opacity:1;fill-rule:nonzero;stroke:none"
             id="path286" /></g><g
           id="g288"
           transform="translate(597.7822,484)"
           style="fill:#6f918a"><path
             d="m 0,0 -21,-21 6.5,-19 -12,-8.5 L 26.167,-173 0,0 z"
             style="fill:#6f918a;fill-opacity:1;fill-rule:nonzero;stroke:none"
             id="path290" /></g><path
           d="m 573,339 30,0 0,9 -30,0 0,-9 z"
           style="fill:#6f918a;fill-opacity:1;fill-rule:nonzero;stroke:none"
           id="path292" /><path
           d="m 615,465 15,0 0,17 -15,0 0,-17 z"
           style="fill:#634f68;fill-opacity:1;fill-rule:nonzero;stroke:none"
           id="path294" /><g
           id="g296"
           transform="translate(597,484)"><path
             d="M 0,0 19.225,-16 26.17,-2 32.002,-16 53,0 53,4 0,4 0,0 z"
             style="fill:#cccccc;fill-opacity:1;fill-rule:nonzero;stroke:none"
             id="path298" /></g><path
           d="m 800,202 -800,0 0,42 800,0 0,-42 z"
           style="fill:#4d4d4d;fill-opacity:1;fill-rule:nonzero;stroke:none"
           id="path300" /><path
           d="m 691,0 -42,0 0,213 42,0 0,-213 z"
           style="fill:#4d4d4d;fill-opacity:1;fill-rule:nonzero;stroke:none"
           id="path302" /><path
           d="m 151,0 -42,0 0,213 42,0 0,-213 z"
           style="fill:#4d4d4d;fill-opacity:1;fill-rule:nonzero;stroke:none"
           id="path304" /><path
           d="m 370,244 -24,0 0,93 24,0 0,-93 z"
           style="fill:#c78b3f;fill-opacity:1;fill-rule:nonzero;stroke:none"
           id="path306" /><path
           d="m 370,297 -24,0 0,27 24,0 0,-27 z"
           style="fill:#ff7246;fill-opacity:1;fill-rule:nonzero;stroke:none"
           id="path308" /><path
           d="m 403,244 -28,0 0,104 28,0 0,-104 z"
           style="fill:#008d9b;fill-opacity:1;fill-rule:nonzero;stroke:none"
           id="path310" /><path
           d="m 403,318 -28,0 0,19 28,0 0,-19 z"
           style="fill:#ffffff;fill-opacity:1;fill-rule:nonzero;stroke:none"
           id="path312" /><path
           d="m 403,256 -28,0 0,8 28,0 0,-8 z"
           style="fill:#ffffff;fill-opacity:1;fill-rule:nonzero;stroke:none"
           id="path314" /><g
           id="g316"
           transform="translate(395.0342,327.9092)"><path
             d="m 0,0 c 0,-3.323 -2.693,-6.017 -6.017,-6.017 -3.322,0 -6.015,2.694 -6.015,6.017 0,3.322 2.693,6.017 6.015,6.017 C -2.693,6.017 0,3.322 0,0"
             style="fill:#ff7246;fill-opacity:1;fill-rule:nonzero;stroke:none"
             id="path318" /></g><g
           id="g320"
           transform="translate(444.3301,249.3652)"><path
             d="M 0,0 -18.188,-5.17 -41.13,75.542 -22.942,80.713 0,0 z"
             style="fill:#985158;fill-opacity:1;fill-rule:nonzero;stroke:none"
             id="path322" /></g><g
           id="g324"
           transform="translate(441.0996,260.7334)"><path
             d="m 0,0 -18.188,-5.17 -15.835,55.702 18.189,5.17 L 0,0 z"
             style="fill:#c78b3f;fill-opacity:1;fill-rule:nonzero;stroke:none"
             id="path326" /></g><path
           d="m 280,258 -28,0 0,17 28,0 0,-17 z"
           style="fill:#ffd344;fill-opacity:1;fill-rule:nonzero;stroke:none"
           id="path328" /><g
           id="g330"
           transform="translate(227.6973,268.1475)"><path
             d="M 0,0 -9.014,6.116 76.293,131.895 85.31,125.784 0,0 z"
             style="fill:#ff682e;fill-opacity:1;fill-rule:nonzero;stroke:none"
             id="path332" /></g><g
           id="g334"
           transform="translate(277.0732,397.6709)"><path
             d="m 0,0 -5.396,-7.955 c 27.578,-3.505 48.98,-27.104 48.98,-55.62 0,-30.923 -25.162,-56.083 -56.083,-56.083 -21.075,0 -39.464,11.689 -49.045,28.917 l -5.378,-7.934 c 11.553,-17.849 31.624,-29.693 54.423,-29.693 35.728,0 64.796,29.064 64.796,64.793 C 52.297,-32.119 29.765,-5.843 0,0"
             style="fill:#ff682e;fill-opacity:1;fill-rule:nonzero;stroke:none"
             id="path336" /></g><g
           id="g338"
           transform="translate(310.3115,334.0957)"><path
             d="m 0,0 c 0,-25.262 -20.479,-45.735 -45.737,-45.735 -25.26,0 -45.739,20.473 -45.739,45.735 0,25.262 20.479,45.74 45.739,45.74 C -20.479,45.74 0,25.262 0,0"
             style="fill:#008b99;fill-opacity:1;fill-rule:nonzero;stroke:none"
             id="path340" /></g><g
           id="g342"
           transform="translate(304.1406,244)"><path
             d="M 0,0 C 0,10.26 -17.063,17.24 -38.115,17.24 -59.164,17.24 -76.229,10.26 -76.229,0 L 0,0 z"
             style="fill:#c48d44;fill-opacity:1;fill-rule:nonzero;stroke:none"
             id="path344" /></g><g
           id="g346"
           transform="translate(267.9141,379.7148)"><path
             d="m 0,0 -5.914,-4.012 0,-12.406 3.424,-4.137 6.035,-4.888 8.281,1.88 6.773,-1.88 2.258,-7.895 1.881,-9.023 c 0,0 -3.008,-4.135 -2.631,-5.262 0.375,-1.129 5.264,-8.486 5.264,-8.486 l 3.008,-6.606 7.518,0 4.277,2.861 c 1.437,4.44 2.223,9.104 2.223,14.024 C 42.397,-21.529 23.926,-1.477 0,0"
             style="fill:#ffd344;fill-opacity:1;fill-rule:nonzero;stroke:none"
             id="path348" /></g><g
           id="g350"
           transform="translate(249.8809,305)"><path
             d="M 0,0 5.811,0 4.98,5.451 0,8 l 9.547,0 5.051,5.842 -9.479,1.816 0,8.301 -4.843,-2.49 -7.333,6.226 -2.906,-4.566 -1.66,-14.818 -4.15,7.798 -5.915,1.629 -5.708,4.575 2.906,5.408 9.962,3.345 4.565,5.446 -2.075,6.881 -5.396,-3.393 -3.736,0 -6.641,0 -2.515,-3.004 c -0.463,-2.613 -0.719,-5.365 -0.719,-8.111 0,-16.551 8.793,-31.082 21.961,-39.112 L -6.227,-5.23 0,0 z"
             style="fill:#ffd344;fill-opacity:1;fill-rule:nonzero;stroke:none"
             id="path352" /></g><g
           id="g354"
           transform="translate(124.8418,297.9141)"><path
             d="M 0,0 11.94,8.53 6.254,16.491 -5.688,7.961 0,0 z"
             style="fill:#ffffff;fill-opacity:1;fill-rule:nonzero;stroke:none"
             id="path356" /></g><g
           id="g358"
           transform="translate(85.2207,347.7617)"><path
             d="M 0,0 17.247,12.323 9.666,22.939 -7.583,10.616 0,0 z"
             style="fill:#008c9b;fill-opacity:1;fill-rule:nonzero;stroke:none"
             id="path360" /></g><g
           id="g362"
           transform="translate(109.1064,308.7168)"><path
             d="M 0,0 22.557,16.115 -8.726,59.898 -31.279,43.784 0,0 z"
             style="fill:#c78c3c;fill-opacity:1;fill-rule:nonzero;stroke:none"
             id="path364" /></g><g
           id="g366"
           transform="translate(115.7422,299.4297)"><path
             d="M 0,0 22.555,16.114 14.025,28.055 -8.531,11.939 0,0 z"
             style="fill:#008c9b;fill-opacity:1;fill-rule:nonzero;stroke:none"
             id="path368" /></g><path
           d="m 99,247 35,0 0,31 -35,0 0,-31 z"
           style="fill:#ff7156;fill-opacity:1;fill-rule:nonzero;stroke:none"
           id="path370" /><g
           id="g372"
           transform="translate(66.9414,302.9219)"><path
             d="m 0,0 c 0,17.833 14.059,32.343 32.059,32.343 l 0,-11.414 c -13,0 -20.645,-9.385 -20.645,-20.926 0,-11.53 8.153,-20.925 21.178,-20.925 l 50.467,0 0,-12 -50.45,0 -0.011,0 -3.374,0.389 C 12.835,-30.898 0,-16.739 0,0"
             style="fill:#008d9b;fill-opacity:1;fill-rule:nonzero;stroke:none"
             id="path374" /></g><path
           d="m 67,244 83,0 0,6 -83,0 0,-6 z"
           style="fill:#008d9b;fill-opacity:1;fill-rule:nonzero;stroke:none"
           id="path376" /><g
           id="g378"
           transform="translate(83.2207,330.4531)"><path
             d="m 0,0 c 0,-6.95 5.634,-12.585 12.584,-12.585 6.951,0 12.587,5.635 12.587,12.585 0,6.951 -5.636,12.587 -12.587,12.587 C 5.634,12.587 0,6.951 0,0"
             style="fill:#ff7156;fill-opacity:1;fill-rule:nonzero;stroke:none"
             id="path380" /></g><g
           id="g382"
           transform="translate(87.0137,330.4531)"><path
             d="m 0,0 c 0,-4.855 3.936,-8.792 8.791,-8.792 4.856,0 8.794,3.937 8.794,8.792 0,4.857 -3.938,8.792 -8.794,8.792 C 3.936,8.792 0,4.857 0,0"
             style="fill:#ffffff;fill-opacity:1;fill-rule:nonzero;stroke:none"
             id="path384" /></g></g></g></g></svg>