<?xml version="1.0" encoding="UTF-8" standalone="no"?>
<!-- Created with Inkscape (http://www.inkscape.org/) -->

<svg
   xmlns:dc="http://purl.org/dc/elements/1.1/"
   xmlns:cc="http://creativecommons.org/ns#"
   xmlns:rdf="http://www.w3.org/1999/02/22-rdf-syntax-ns#"
   xmlns:svg="http://www.w3.org/2000/svg"
   xmlns="http://www.w3.org/2000/svg"
   xmlns:sodipodi="http://sodipodi.sourceforge.net/DTD/sodipodi-0.dtd"
   xmlns:inkscape="http://www.inkscape.org/namespaces/inkscape"
   id="svg2"
   version="1.1"
   inkscape:version="0.48.4 r9939"
   width="1053.5107"
   height="611.73877"
   xml:space="preserve"
   sodipodi:docname="teacher-banner.svg"><metadata
     id="metadata8"><rdf:RDF><cc:Work
         rdf:about=""><dc:format>image/svg+xml</dc:format><dc:type
           rdf:resource="http://purl.org/dc/dcmitype/StillImage" /><dc:title></dc:title></cc:Work></rdf:RDF></metadata><defs
     id="defs6"><clipPath
       clipPathUnits="userSpaceOnUse"
       id="clipPath18"><path
         d="m 0.027,0.012 799.893,0 0,799.908 -799.893,0 0,-799.908 z"
         id="path20"
         inkscape:connector-curvature="0" /></clipPath><clipPath
       clipPathUnits="userSpaceOnUse"
       id="clipPath26"><path
         d="m -215.83,708.492 1231.63,0 0,-617.0418 -1231.63,0 0,617.0418 z"
         id="path28"
         inkscape:connector-curvature="0" /></clipPath><clipPath
       clipPathUnits="userSpaceOnUse"
       id="clipPath42"><path
         d="m 0,799.92 799.92,0 L 799.92,0 0,0 0,799.92 z"
         id="path44"
         inkscape:connector-curvature="0" /></clipPath><clipPath
       clipPathUnits="userSpaceOnUse"
       id="clipPath126"><path
         d="m 0,799.92 799.92,0 L 799.92,0 0,0 0,799.92 z"
         id="path128"
         inkscape:connector-curvature="0" /></clipPath><clipPath
       clipPathUnits="userSpaceOnUse"
       id="clipPath1200"><path
         d="m 0,0.012 799.92,0 0,338.186 L 0,338.198 0,0.012 z"
         id="path1202"
         inkscape:connector-curvature="0" /></clipPath><clipPath
       clipPathUnits="userSpaceOnUse"
       id="clipPath2084"><path
         d="m 0,799.92 799.92,0 L 799.92,0 0,0 0,799.92 z"
         id="path2086"
         inkscape:connector-curvature="0" /></clipPath></defs><sodipodi:namedview
     pagecolor="#ffffff"
     bordercolor="#666666"
     borderopacity="1"
     objecttolerance="10"
     gridtolerance="10"
     guidetolerance="10"
     inkscape:pageopacity="0"
     inkscape:pageshadow="2"
     inkscape:window-width="1366"
     inkscape:window-height="709"
     id="namedview4"
     showgrid="false"
     inkscape:zoom="0.33378777"
     inkscape:cx="139.90511"
     inkscape:cy="342.09188"
     inkscape:window-x="0"
     inkscape:window-y="27"
     inkscape:window-maximized="1"
     inkscape:current-layer="g124"
     fit-margin-top="5"
     fit-margin-left="100"
     fit-margin-right="100"
     fit-margin-bottom="5" /><g
     id="g10"
     inkscape:groupmode="layer"
     inkscape:label="11980-NOAA67"
     transform="matrix(1.25,0,0,-1.25,40.791,928.98687)"><g
       id="g122"><g
         id="g124"
         clip-path="url(#clipPath126)"><g
           id="g6029"
           style="stroke:#afdde9"><g
             transform="translate(483,581.2402)"
             id="g166"
             style="stroke:#afdde9"><path
               inkscape:connector-curvature="0"
               id="path168"
               style="fill:none;stroke:#afdde9;stroke-width:3.83999991;stroke-linecap:butt;stroke-linejoin:miter;stroke-miterlimit:22.9260006;stroke-opacity:1;stroke-dasharray:3.84, 7.68;stroke-dashoffset:0"
               d="M 0,0 -198.493,-70.074" /></g><g
             style="stroke:#afdde9"
             id="g6007"><g
               style="stroke:#afdde9"
               id="g138"
               transform="translate(420.8242,297.9766)"><path
                 d="M 0,0 -85.043,221.98"
                 style="fill:none;stroke:#afdde9;stroke-width:3.83999991;stroke-linecap:butt;stroke-linejoin:miter;stroke-miterlimit:22.9260006;stroke-opacity:1;stroke-dasharray:3.84, 7.68;stroke-dashoffset:0"
                 id="path140"
                 inkscape:connector-curvature="0" /></g><g
               style="stroke:#afdde9"
               id="g142"
               transform="translate(538.8203,684.9785)"><path
                 d="M 0,0 -203.039,-165.021"
                 style="fill:none;stroke:#afdde9;stroke-width:3.83999991;stroke-linecap:butt;stroke-linejoin:miter;stroke-miterlimit:22.9260006;stroke-opacity:1;stroke-dasharray:3.84, 7.68;stroke-dashoffset:0"
                 id="path144"
                 inkscape:connector-curvature="0" /></g><g
               style="stroke:#afdde9"
               id="g146"
               transform="translate(524.8359,681.957)"><path
                 d="M 0,0 138.729,17.031"
                 style="fill:none;stroke:#afdde9;stroke-width:3.83999991;stroke-linecap:butt;stroke-linejoin:miter;stroke-miterlimit:22.9260006;stroke-opacity:1;stroke-dasharray:3.84, 7.68;stroke-dashoffset:0"
                 id="path148"
                 inkscape:connector-curvature="0" /></g><g
               style="stroke:#afdde9"
               id="g162"
               transform="translate(586.4277,444.9004)"><path
                 d="M 0,0 77.135,254.088"
                 style="fill:none;stroke:#afdde9;stroke-width:3.83999991;stroke-linecap:butt;stroke-linejoin:miter;stroke-miterlimit:22.9260006;stroke-opacity:1;stroke-dasharray:3.84, 7.68;stroke-dashoffset:0"
                 id="path164"
                 inkscape:connector-curvature="0" /></g><g
               style="stroke:#afdde9"
               id="g178"
               transform="translate(586.4277,444.9004)"><path
                 d="M 0,0 -467.451,-53.064"
                 style="fill:none;stroke:#afdde9;stroke-width:3.83999991;stroke-linecap:butt;stroke-linejoin:miter;stroke-miterlimit:22.9260006;stroke-opacity:1;stroke-dasharray:3.84, 7.68;stroke-dashoffset:0"
                 id="path180"
                 inkscape:connector-curvature="0" /></g><g
               style="stroke:#afdde9"
               id="g182"
               transform="translate(321.9629,713.1299)"><path
                 d="M 0,0 -135.069,-118.936"
                 style="fill:none;stroke:#afdde9;stroke-width:3.83999991;stroke-linecap:butt;stroke-linejoin:miter;stroke-miterlimit:22.9260006;stroke-opacity:1;stroke-dasharray:3.84, 7.68;stroke-dashoffset:0"
                 id="path184"
                 inkscape:connector-curvature="0" /></g><g
               style="stroke:#afdde9"
               id="g190"
               transform="translate(69.6953,536.5908)"><path
                 d="M 0,0 35.041,-121.626"
                 style="fill:none;stroke:#afdde9;stroke-width:3.83999991;stroke-linecap:butt;stroke-linejoin:miter;stroke-miterlimit:22.9260006;stroke-opacity:1;stroke-dasharray:3.84, 7.68;stroke-dashoffset:0"
                 id="path192"
                 inkscape:connector-curvature="0" /></g><g
               style="stroke:#afdde9"
               id="g194"
               transform="translate(72.0137,540.5957)"><path
                 d="M 0,0 262.876,-16.924"
                 style="fill:none;stroke:#afdde9;stroke-width:3.83999991;stroke-linecap:butt;stroke-linejoin:miter;stroke-miterlimit:22.9260006;stroke-opacity:1;stroke-dasharray:3.84, 7.68;stroke-dashoffset:0"
                 id="path196"
                 inkscape:connector-curvature="0" /></g><g
               style="stroke:#afdde9"
               id="g202"
               transform="translate(420.8242,297.9766)"><path
                 d="M 0,0 285.352,61.246"
                 style="fill:none;stroke:#afdde9;stroke-width:3.83999991;stroke-linecap:butt;stroke-linejoin:miter;stroke-miterlimit:22.9260006;stroke-opacity:1;stroke-dasharray:3.84, 7.68;stroke-dashoffset:0"
                 id="path204"
                 inkscape:connector-curvature="0" /></g><g
               style="stroke:#afdde9"
               id="g214"
               transform="translate(529.459,683.1719)"><path
                 d="M 0,0 -207.664,34.425"
                 style="fill:none;stroke:#afdde9;stroke-width:3.83999991;stroke-linecap:butt;stroke-linejoin:miter;stroke-miterlimit:22.9260006;stroke-opacity:1;stroke-dasharray:3.84, 7.68;stroke-dashoffset:0"
                 id="path216"
                 inkscape:connector-curvature="0" /></g></g></g><g
           id="g6078"
           style="stroke:#d7eef4;stroke-opacity:1"><g
             style="fill:#ffffff;stroke:#d7eef4;stroke-opacity:1"
             transform="translate(338.2324,505.2324)"
             id="g210"><path
               inkscape:connector-curvature="0"
               id="path212"
               style="fill:#ffffff;stroke:#d7eef4;stroke-width:3.83999991;stroke-linecap:butt;stroke-linejoin:miter;stroke-miterlimit:22.9260006;stroke-opacity:1;stroke-dasharray:none"
               d="M 0,0 -16.63,209.84" /></g><g
             style="stroke:#d7eef4;stroke-opacity:1"
             id="g6054"><g
               id="g158"
               transform="translate(486.3711,576.9805)"
               style="fill:#ffffff;stroke:#d7eef4;stroke-opacity:1"><path
                 d="M 0,0 123.395,-170.537"
                 style="fill:#ffffff;stroke:#d7eef4;stroke-width:3.83999991;stroke-linecap:butt;stroke-linejoin:miter;stroke-miterlimit:22.9260006;stroke-opacity:1;stroke-dasharray:none"
                 id="path160"
                 inkscape:connector-curvature="0" /></g><g
               id="g174"
               transform="translate(586.4277,444.8994)"
               style="stroke:#d7eef4;stroke-opacity:1"><path
                 d="M 0,0 -165.604,-146.923"
                 style="fill:none;stroke:#d7eef4;stroke-width:3.83999991;stroke-linecap:butt;stroke-linejoin:miter;stroke-miterlimit:22.9260006;stroke-opacity:1;stroke-dasharray:none"
                 id="path176"
                 inkscape:connector-curvature="0" /></g><g
               id="g5988"
               style="fill:#aaffaa;stroke:#d7eef4;stroke-opacity:1"><g
                 style="fill:#aaffaa;stroke:#d7eef4;stroke-opacity:1"
                 transform="translate(187.8418,599.2529)"
                 id="g130"><path
                   inkscape:connector-curvature="0"
                   id="path132"
                   style="fill:#aaffaa;stroke:#d7eef4;stroke-width:3.83999991;stroke-linecap:butt;stroke-linejoin:miter;stroke-miterlimit:22.9260006;stroke-opacity:1;stroke-dasharray:none"
                   d="M 0,0 147.939,-79.296" /></g><g
                 style="fill:#aaffaa;stroke:#d7eef4;stroke-opacity:1"
                 transform="translate(71.3662,542.4805)"
                 id="g186"><path
                   inkscape:connector-curvature="0"
                   id="path188"
                   style="fill:#aaffaa;stroke:#d7eef4;stroke-width:3.83999991;stroke-linecap:butt;stroke-linejoin:miter;stroke-miterlimit:22.9260006;stroke-opacity:1;stroke-dasharray:none"
                   d="M 0,0 115.527,51.714" /></g><g
                 style="fill:#aaffaa;stroke:#d7eef4;stroke-opacity:1"
                 transform="translate(420.8242,297.9766)"
                 id="g198"><path
                   inkscape:connector-curvature="0"
                   id="path200"
                   style="fill:#aaffaa;stroke:#d7eef4;stroke-width:3.83999991;stroke-linecap:butt;stroke-linejoin:miter;stroke-miterlimit:22.9260006;stroke-opacity:1;stroke-dasharray:none"
                   d="M 0,0 -301.848,93.859" /></g><g
                 id="g5976"
                 style="fill:#aaffaa;stroke:#d7eef4;stroke-opacity:1"><g
                   id="g134"
                   transform="translate(586.4277,444.8994)"
                   style="fill:#aaffaa;stroke:#d7eef4;stroke-opacity:1"><path
                     d="M 0,0 -250.646,75.058"
                     style="fill:#aaffaa;stroke:#d7eef4;stroke-width:3.83999991;stroke-linecap:butt;stroke-linejoin:miter;stroke-miterlimit:22.9260006;stroke-opacity:1;stroke-dasharray:none"
                     id="path136"
                     inkscape:connector-curvature="0" /></g><g
                   id="g150"
                   transform="translate(489.6699,580.3711)"
                   style="fill:#aaffaa;stroke:#d7eef4;stroke-opacity:1"><path
                     d="M 0,0 173.893,118.617"
                     style="fill:#aaffaa;stroke:#d7eef4;stroke-width:3.83999991;stroke-linecap:butt;stroke-linejoin:miter;stroke-miterlimit:22.9260006;stroke-opacity:1;stroke-dasharray:none"
                     id="path152"
                     inkscape:connector-curvature="0" /></g><g
                   id="g154"
                   transform="translate(485.3125,583.6221)"
                   style="fill:#aaffaa;stroke:#d7eef4;stroke-opacity:1"><path
                     d="M 0,0 -163.178,132.976"
                     style="fill:#aaffaa;stroke:#d7eef4;stroke-width:3.83999991;stroke-linecap:butt;stroke-linejoin:miter;stroke-miterlimit:22.9260006;stroke-opacity:1;stroke-dasharray:none"
                     id="path156"
                     inkscape:connector-curvature="0" /></g><g
                   id="g170"
                   transform="translate(586.4277,444.8994)"
                   style="fill:#aaffaa;stroke:#d7eef4;stroke-opacity:1"><path
                     d="M 0,0 119.744,-88.698"
                     style="fill:#aaffaa;stroke:#d7eef4;stroke-width:3.83999991;stroke-linecap:butt;stroke-linejoin:miter;stroke-miterlimit:22.9260006;stroke-opacity:1;stroke-dasharray:none"
                     id="path172"
                     inkscape:connector-curvature="0" /></g><g
                   id="g218"
                   transform="translate(709.5625,356.2012)"
                   style="fill:#aaffaa;stroke:#d7eef4;stroke-opacity:1"><path
                     d="M 0,0 -45.998,342.787"
                     style="fill:#aaffaa;stroke:#d7eef4;stroke-width:3.83999991;stroke-linecap:butt;stroke-linejoin:miter;stroke-miterlimit:22.9260006;stroke-opacity:1;stroke-dasharray:none"
                     id="path220"
                     inkscape:connector-curvature="0" /></g></g></g></g></g><g
           id="g222"
           transform="translate(334.792,453.7422)"><path
             d="m 0,0 c -42.801,0 -77.498,34.696 -77.498,77.497 0,42.8 34.697,77.497 77.498,77.497 42.8,0 77.497,-34.697 77.497,-77.497 C 77.497,34.696 42.8,0 0,0"
             style="fill:#cbe3e2;fill-opacity:1;fill-rule:evenodd;stroke:none"
             id="path224"
             inkscape:connector-curvature="0" /></g><g
           id="g226"
           transform="translate(305.8193,495.8623)"><path
             d="m 0,0 c -7.636,-4.957 -10.798,-15.609 -15.277,-28.226 12.551,-8.755 27.815,-13.895 44.28,-13.895 16.438,0 31.679,5.123 44.22,13.852 C 68.754,-15.593 65.644,-4.839 57.917,0 44.692,8.281 36.734,10.265 28.931,10.37 20.95,10.479 13.13,8.524 0,0"
             style="fill:#e6615f;fill-opacity:1;fill-rule:evenodd;stroke:none"
             id="path228"
             inkscape:connector-curvature="0" /></g><g
           id="g230"
           transform="translate(370.3389,462.3467)"><path
             d="M 0,0 0,26.546 C 3.436,21.016 5.778,13.543 8.703,5.247 5.929,3.315 3.021,1.562 0,0"
             style="fill:#d95957;fill-opacity:1;fill-rule:evenodd;stroke:none"
             id="path232"
             inkscape:connector-curvature="0" /></g><g
           id="g234"
           transform="translate(363.7422,495.8584)"><path
             d="m 0,0 0,-36.536 c -3.083,-1.242 -6.264,-2.291 -9.528,-3.133 l 0,45.023 c 2.866,-1.394 6.007,-3.15 9.522,-5.35 L 0,0 z"
             style="fill:#d95957;fill-opacity:1;fill-rule:evenodd;stroke:none"
             id="path236"
             inkscape:connector-curvature="0" /></g><g
           id="g238"
           transform="translate(347.6182,503.9746)"><path
             d="m 0,0 0,-49.181 c -3.117,-0.518 -6.297,-0.849 -9.528,-0.983 l 0,52.252 C -6.562,1.816 -3.476,1.197 0,0"
             style="fill:#d95957;fill-opacity:1;fill-rule:evenodd;stroke:none"
             id="path240"
             inkscape:connector-curvature="0" /></g><g
           id="g242"
           transform="translate(331.4932,506.1514)"><path
             d="m 0,0 0,-52.339 c -3.23,0.137 -6.411,0.471 -9.527,0.992 l 0,49.395 C -6.081,-0.772 -3,-0.2 0,0"
             style="fill:#d95957;fill-opacity:1;fill-rule:evenodd;stroke:none"
             id="path244"
             inkscape:connector-curvature="0" /></g><g
           id="g246"
           transform="translate(315.3691,501.4023)"><path
             d="m 0,0 0,-45.196 c -3.265,0.844 -6.445,1.896 -9.528,3.14 l 0,36.531 C -6.005,-3.239 -2.864,-1.427 0,0"
             style="fill:#d95957;fill-opacity:1;fill-rule:evenodd;stroke:none"
             id="path248"
             inkscape:connector-curvature="0" /></g><g
           id="g250"
           transform="translate(299.2441,488.7998)"><path
             d="m 0,0 0,-26.421 c -3.022,1.565 -5.929,3.322 -8.702,5.258 C -5.777,-12.925 -3.413,-5.524 0,0"
             style="fill:#d95957;fill-opacity:1;fill-rule:evenodd;stroke:none"
             id="path252"
             inkscape:connector-curvature="0" /></g><g
           id="g254"
           transform="translate(303.8037,494.3369)"><path
             d="m 0,0 c -2.746,-2.396 -4.861,-5.653 -6.717,-9.527 l 75.456,0 C 66.888,-5.634 64.771,-2.372 62.002,0 L 0,0 z"
             style="fill:#d95957;fill-opacity:1;fill-rule:evenodd;stroke:none"
             id="path256"
             inkscape:connector-curvature="0" /></g><g
           id="g258"
           transform="translate(294.3184,478.2129)"><path
             d="m 0,0 c -1.126,-2.979 -2.225,-6.18 -3.405,-9.528 l 87.746,0 C 83.17,-6.183 82.083,-2.981 80.968,0 L 0,0 z"
             style="fill:#d95957;fill-opacity:1;fill-rule:evenodd;stroke:none"
             id="path260"
             inkscape:connector-curvature="0" /></g><g
           id="g262"
           transform="translate(299.8096,462.0879)"><path
             d="m 0,0 c 10.517,-5.336 22.412,-8.347 35.013,-8.347 12.6,0 24.496,3.011 35.012,8.347 L 0,0 z"
             style="fill:#d95957;fill-opacity:1;fill-rule:evenodd;stroke:none"
             id="path264"
             inkscape:connector-curvature="0" /></g><g
           id="g266"
           transform="translate(370.3389,484.8096)"><path
             d="M 0,0 2.204,0 2.117,0.182 1.941,0.543 1.854,0.723 C 1.736,0.961 1.617,1.196 1.496,1.43 L 1.406,1.604 C 1.286,1.834 1.165,2.062 1.043,2.286 L 1.039,2.292 0.947,2.462 0.859,2.618 0.85,2.638 0.76,2.798 0.665,2.964 0.654,2.982 0.589,3.097 0.57,3.13 0.476,3.292 0.475,3.294 0.379,3.457 0.362,3.485 0.282,3.619 0.185,3.781 0.099,3.923 0.065,3.976 0,4.082 0,0 z"
             style="fill:#f0817f;fill-opacity:1;fill-rule:evenodd;stroke:none"
             id="path268"
             inkscape:connector-curvature="0" /></g><g
           id="g270"
           transform="translate(370.3389,468.6846)"><path
             d="M 0,0 8.319,0 8.295,0.07 8.265,0.157 8.211,0.313 8.161,0.455 8.156,0.47 8.102,0.626 7.992,0.937 7.938,1.093 7.895,1.22 7.885,1.248 7.831,1.403 7.777,1.558 7.762,1.601 7.724,1.712 7.67,1.866 7.562,2.175 7.509,2.328 7.499,2.357 7.456,2.481 7.138,3.396 7.108,3.481 6.928,4.001 6.875,4.151 6.85,4.224 6.822,4.302 6.77,4.452 6.721,4.593 6.718,4.603 6.666,4.752 6.613,4.901 6.593,4.96 6.356,5.631 6.352,5.644 6.336,5.688 6.3,5.791 6.248,5.938 6.208,6.051 6.196,6.086 6.145,6.232 6.092,6.379 6.08,6.411 5.988,6.671 5.953,6.771 5.937,6.817 5.832,7.107 5.825,7.127 5.78,7.252 5.729,7.396 5.697,7.482 5.677,7.541 5.624,7.685 5.572,7.829 5.57,7.836 5.521,7.972 5.469,8.115 5.442,8.188 5.417,8.258 5.364,8.4 5.314,8.537 5.312,8.542 5.187,8.886 5.156,8.967 5.104,9.107 5.059,9.231 4.947,9.528 0,9.528 0,0 z"
             style="fill:#f0817f;fill-opacity:1;fill-rule:evenodd;stroke:none"
             id="path272"
             inkscape:connector-curvature="0" /></g><path
           d="m 354.214,484.81 9.528,0 0,9.527 -9.528,0 0,-9.527 z"
           style="fill:#f0817f;fill-opacity:1;fill-rule:evenodd;stroke:none"
           id="path274"
           inkscape:connector-curvature="0" /><path
           d="m 354.214,468.685 9.528,0 0,9.528 -9.528,0 0,-9.528 z"
           style="fill:#f0817f;fill-opacity:1;fill-rule:evenodd;stroke:none"
           id="path276"
           inkscape:connector-curvature="0" /><g
           id="g278"
           transform="translate(354.3057,456.2139)"><path
             d="m 0,0 0.357,0.093 0.01,0.003 0.08,0.02 0.073,0.02 0.358,0.096 0.194,0.054 0.361,0.1 0.1,0.028 0.051,0.014 0.018,0.005 0.389,0.111 0.167,0.049 0.031,0.009 0.152,0.044 0.151,0.044 0.206,0.062 0.383,0.115 0.014,0.004 0.057,0.018 0.092,0.028 0.33,0.102 0.263,0.083 0.008,0.002 0.149,0.046 0.15,0.048 0.149,0.048 0.149,0.049 0.15,0.048 L 4.74,1.393 4.819,1.418 5.17,1.535 5.383,1.606 5.747,1.73 5.895,1.782 6.231,1.899 6.456,1.979 6.812,2.106 6.87,2.127 6.959,2.16 6.963,2.161 7.303,2.285 7.399,2.321 7.546,2.376 7.797,2.47 7.984,2.54 8.13,2.596 8.275,2.651 8.421,2.707 8.523,2.747 8.566,2.764 8.712,2.82 8.857,2.878 8.899,2.895 9.026,2.944 9.292,3.05 l 0.145,0.058 0,2.766 -9.529,0 0,-5.898 L 0,0 z"
             style="fill:#f0817f;fill-opacity:1;fill-rule:evenodd;stroke:none"
             id="path280"
             inkscape:connector-curvature="0" /></g><path
           d="m 338.09,484.81 9.528,0 0,9.527 -9.528,0 0,-9.527 z"
           style="fill:#f0817f;fill-opacity:1;fill-rule:evenodd;stroke:none"
           id="path282"
           inkscape:connector-curvature="0" /><path
           d="m 338.09,468.685 9.528,0 0,9.528 -9.528,0 0,-9.528 z"
           style="fill:#f0817f;fill-opacity:1;fill-rule:evenodd;stroke:none"
           id="path284"
           inkscape:connector-curvature="0" /><g
           id="g286"
           transform="translate(338.5439,453.8301)"><path
             d="m 0,0 0.151,0.008 0.453,0.023 0.151,0.009 0.452,0.026 0.15,0.01 0.301,0.02 0.151,0.01 0.15,0.011 L 2.26,0.14 2.41,0.151 2.56,0.163 2.992,0.199 3.009,0.2 3.158,0.214 3.446,0.239 3.457,0.24 l 0.149,0.014 0.15,0.015 0.216,0.02 0.231,0.023 0.15,0.016 0.223,0.024 0.313,0.033 0.203,0.023 0.383,0.044 0.182,0.022 0.477,0.059 0.024,0.003 0.02,0.003 0.54,0.07 0.007,0.001 0.004,0 0.012,0.003 c 0.186,0.025 0.37,0.05 0.556,0.076 l 0.017,0.002 c 0.589,0.085 1.175,0.176 1.76,0.273 l 0,7.294 -9.528,0 0,-8.278 L 0,0 z"
             style="fill:#f0817f;fill-opacity:1;fill-rule:evenodd;stroke:none"
             id="path288"
             inkscape:connector-curvature="0" /></g><path
           d="m 321.966,484.81 9.527,0 0,9.527 -9.527,0 0,-9.527 z"
           style="fill:#f0817f;fill-opacity:1;fill-rule:evenodd;stroke:none"
           id="path290"
           inkscape:connector-curvature="0" /><path
           d="m 321.966,468.685 9.527,0 0,9.528 -9.527,0 0,-9.528 z"
           style="fill:#f0817f;fill-opacity:1;fill-rule:evenodd;stroke:none"
           id="path292"
           inkscape:connector-curvature="0" /><g
           id="g294"
           transform="translate(321.9658,454.8047)"><path
             d="m 0,0 0.101,-0.018 0.039,-0.005 0.006,-0.001 0.027,-0.005 0.507,-0.082 0.024,-0.004 0.027,-0.004 0.511,-0.078 0.029,-0.005 0.047,-0.007 0.497,-0.073 0.023,-0.003 0.068,-0.01 0.443,-0.06 0.058,-0.009 0.089,-0.012 0.418,-0.055 0.149,-0.018 0.322,-0.04 0.284,-0.034 0.012,-0.001 0.147,-0.018 0.149,-0.018 0.002,0 0.295,-0.032 0.149,-0.016 0.149,-0.016 0.267,-0.028 0.03,-0.003 0.15,-0.016 0.025,-0.003 0.423,-0.04 0.148,-0.015 c 1.295,-0.12 2.6,-0.208 3.912,-0.263 l 0,8.275 L 0,7.283 0,0 z"
             style="fill:#f0817f;fill-opacity:1;fill-rule:evenodd;stroke:none"
             id="path296"
             inkscape:connector-curvature="0" /></g><path
           d="m 305.841,484.81 9.528,0 0,9.527 -9.528,0 0,-9.527 z"
           style="fill:#f0817f;fill-opacity:1;fill-rule:evenodd;stroke:none"
           id="path298"
           inkscape:connector-curvature="0" /><path
           d="m 305.841,468.685 9.528,0 0,9.528 -9.528,0 0,-9.528 z"
           style="fill:#f0817f;fill-opacity:1;fill-rule:evenodd;stroke:none"
           id="path300"
           inkscape:connector-curvature="0" /><g
           id="g302"
           transform="translate(305.9854,459.2891)"><path
             d="M 0,0 0.145,-0.059 0.29,-0.115 0.58,-0.23 0.726,-0.287 0.764,-0.302 1.016,-0.4 1.162,-0.456 1.308,-0.512 1.326,-0.519 1.556,-0.605 1.6,-0.622 1.746,-0.677 1.893,-0.731 2.151,-0.826 2.186,-0.839 2.333,-0.893 2.581,-0.982 2.929,-1.106 3.069,-1.156 3.217,-1.209 3.364,-1.26 3.366,-1.261 3.66,-1.362 3.809,-1.413 3.957,-1.464 3.991,-1.476 4.105,-1.514 4.254,-1.563 4.402,-1.613 4.552,-1.662 4.687,-1.707 4.7,-1.712 4.85,-1.76 4.999,-1.809 5.021,-1.815 5.213,-1.878 5.548,-1.984 5.745,-2.046 5.747,-2.047 5.897,-2.093 6.047,-2.14 6.106,-2.157 6.299,-2.216 6.649,-2.321 6.739,-2.349 6.8,-2.366 7.103,-2.455 7.254,-2.499 7.339,-2.523 7.712,-2.631 7.859,-2.672 8.012,-2.715 8.163,-2.757 8.315,-2.799 8.457,-2.838 8.468,-2.84 8.62,-2.882 l 0.152,-0.04 0.135,-0.037 0.018,-0.004 0.04,-0.011 0.419,-0.109 0,5.882 -9.529,0 0,-2.741 L 0,0 z"
             style="fill:#f0817f;fill-opacity:1;fill-rule:evenodd;stroke:none"
             id="path304"
             inkscape:connector-curvature="0" /></g><g
           id="g306"
           transform="translate(299.2441,488.7988)"><path
             d="M 0,0 -0.032,-0.053 -0.038,-0.062 -0.137,-0.223 -0.159,-0.26 -0.233,-0.384 -0.272,-0.45 -0.33,-0.546 -0.426,-0.709 -0.511,-0.854 -0.521,-0.873 -0.616,-1.037 -0.671,-1.133 -0.741,-1.256 -0.805,-1.37 -0.897,-1.538 -0.901,-1.544 -0.979,-1.685 -0.991,-1.707 -1.083,-1.877 -1.084,-1.878 -1.175,-2.048 -1.267,-2.22 -1.357,-2.393 -1.359,-2.395 -1.437,-2.546 -1.455,-2.579 -1.618,-2.896 -1.634,-2.929 -1.717,-3.093 -1.806,-3.271 -1.982,-3.628 -2.069,-3.809 -2.07,-3.81 -2.157,-3.989 0,-3.989 0,0 z"
             style="fill:#f0817f;fill-opacity:1;fill-rule:evenodd;stroke:none"
             id="path308"
             inkscape:connector-curvature="0" /></g><g
           id="g310"
           transform="translate(294.3184,478.2129)"><path
             d="m 0,0 -0.053,-0.14 -0.052,-0.14 -0.02,-0.051 -0.033,-0.09 -0.053,-0.141 -0.042,-0.113 -0.011,-0.027 -0.052,-0.142 -0.053,-0.141 -0.013,-0.036 -0.04,-0.107 L -0.474,-1.27 -0.51,-1.367 -0.526,-1.413 -0.579,-1.556 -0.631,-1.699 -0.638,-1.717 -0.684,-1.843 -0.736,-1.986 -0.766,-2.067 -0.788,-2.131 -0.841,-2.275 -0.894,-2.42 -0.946,-2.564 -0.999,-2.71 -1.021,-2.774 -1.052,-2.856 -1.104,-3.002 -1.149,-3.13 -1.156,-3.148 -1.209,-3.295 -1.261,-3.441 -1.278,-3.488 -1.313,-3.589 -1.366,-3.736 -1.406,-3.848 -1.419,-3.884 -1.472,-4.031 -1.524,-4.18 -1.534,-4.209 -1.577,-4.328 -1.63,-4.477 -1.663,-4.571 -1.683,-4.626 -1.735,-4.775 -1.788,-4.925 -1.792,-4.936 -1.841,-5.074 -1.894,-5.225 -1.921,-5.301 -1.946,-5.375 -2,-5.525 -2.05,-5.669 -2.053,-5.677 -2.106,-5.827 -2.159,-5.979 -2.18,-6.037 -2.213,-6.131 -2.266,-6.282 -2.311,-6.408 -2.319,-6.435 -2.534,-7.046 -2.571,-7.153 -2.588,-7.199 -2.642,-7.353 -2.695,-7.507 -2.703,-7.528 -2.75,-7.66 -2.804,-7.814 -2.835,-7.904 -2.858,-7.97 -2.912,-8.125 -2.967,-8.279 -2.968,-8.282 -3.021,-8.435 -3.076,-8.59 l -0.025,-0.071 -0.03,-0.085 -0.055,-0.156 -0.048,-0.139 -0.006,-0.017 -0.056,-0.157 -0.055,-0.156 -0.018,-0.053 -0.036,-0.104 8.331,0 L 4.926,0 0,0 z"
             style="fill:#f0817f;fill-opacity:1;fill-rule:evenodd;stroke:none"
             id="path312"
             inkscape:connector-curvature="0" /></g><g
           id="g314"
           transform="translate(323.8252,535.333)"><path
             d="m 0,0 21.904,0 0,-31.683 C 21.904,-42.376 0,-43.604 0,-31.683 L 0,0 z"
             style="fill:#ffddb8;fill-opacity:1;fill-rule:evenodd;stroke:none"
             id="path316"
             inkscape:connector-curvature="0" /></g><g
           id="g318"
           transform="translate(345.7295,515.4424)"><path
             d="m 0,0 0,4.05 -21.904,0 0,-14.91 L 0,0 z"
             style="fill:#e8c5a0;fill-opacity:1;fill-rule:evenodd;stroke:none"
             id="path320"
             inkscape:connector-curvature="0" /></g><g
           id="g322"
           transform="translate(334.2959,568.2607)"><path
             d="m 0,0 c 15.557,0 23.771,-9.124 24.603,-18.773 0.83,-9.65 2.228,-7.938 5.591,-0.757 3.365,7.179 -4.876,38.144 -28.933,38.144 -24.058,0 -33.907,-23.821 -30.543,-36.836 3.364,-13.014 3.364,-9.924 5.467,-0.05 C -21.713,-8.399 -17.24,-0.449 0,0"
             style="fill:#c48872;fill-opacity:1;fill-rule:evenodd;stroke:none"
             id="path324"
             inkscape:connector-curvature="0" /></g><g
           id="g326"
           transform="translate(361.8818,558.5586)"><path
             d="m 0,0 c 5.146,-18.131 -9.107,-44.213 -27.104,-44.213 -17.75,0 -31.861,25.374 -27.306,43.466 C -39.854,6.522 -17.357,14.745 0,0"
             style="fill:#ffddb8;fill-opacity:1;fill-rule:evenodd;stroke:none"
             id="path328"
             inkscape:connector-curvature="0" /></g><g
           id="g330"
           transform="translate(357.6553,551.5713)"><path
             d="m 0,0 c -0.1,5.081 -4.361,10.517 -7.453,12.063 -3.092,1.545 -18.727,-0.385 -26.8,-5.521 -8.73,-5.553 -10.339,-9.77 -10.919,-14.75 -0.182,-1.563 -0.607,-3.15 -1.452,-2.842 -2.672,0.974 -3.2,8.448 -5.472,9.812 -3.312,1.987 -1.797,5.158 -0.471,10.236 1.324,5.079 16.27,7.867 28.635,8.309 12.366,0.442 21.615,-2.428 25.45,-5.961 C 5.354,7.812 6.808,2.112 5.118,-2.72 3.906,-6.185 2.691,-10.415 0.205,-9.692 -0.926,-9.363 0.057,-2.94 0,0"
             style="fill:#c48872;fill-opacity:1;fill-rule:evenodd;stroke:none"
             id="path332"
             inkscape:connector-curvature="0" /></g><g
           id="g334"
           transform="translate(364.585,554.5371)"><path
             d="m 0,0 c 1.688,-0.376 2.352,-3.85 1.481,-7.76 -0.869,-3.909 -2.943,-6.774 -4.631,-6.398 -1.689,0.376 -2.352,3.849 -1.482,7.759 C -3.763,-2.489 -1.688,0.375 0,0"
             style="fill:#ffddb8;fill-opacity:1;fill-rule:evenodd;stroke:none"
             id="path336"
             inkscape:connector-curvature="0" /></g><g
           id="g338"
           transform="translate(304.999,554.5371)"><path
             d="m 0,0 c -1.688,-0.376 -2.353,-3.85 -1.482,-7.76 0.87,-3.909 2.943,-6.774 4.631,-6.398 1.689,0.376 2.352,3.849 1.483,7.759 C 3.762,-2.489 1.687,0.375 0,0"
             style="fill:#f7d6b2;fill-opacity:1;fill-rule:evenodd;stroke:none"
             id="path340"
             inkscape:connector-curvature="0" /></g><g
           id="g342"
           transform="translate(314.4746,501.7295)"><path
             d="m 0,0 c -9.223,0 -11.145,-1.153 -11.528,-7.302 -0.385,-6.148 1.152,-20.752 6.917,-28.821 5.764,-8.07 2.689,1.152 3.459,7.686 0.768,6.533 1.921,-9.224 4.611,-1.922 C 6.148,-23.058 2.69,-18.062 0,0"
             style="fill:#ffcd61;fill-opacity:1;fill-rule:evenodd;stroke:none"
             id="path344"
             inkscape:connector-curvature="0" /></g><g
           id="g346"
           transform="translate(360.3701,498.8467)"><path
             d="M 0,0 C 4.197,0 9.383,-2.717 5.68,-8.644 1.976,-14.57 0,-28.152 -0.247,-33.832 c -0.247,-5.68 -2.964,-9.631 -2.964,-4.939 0,4.692 -3.457,15.557 -4.445,10.866 -0.988,-4.693 -4.692,-9.384 -4.198,-0.494 C -11.36,-19.51 -9.385,4.938 0,0"
             style="fill:#ffcd61;fill-opacity:1;fill-rule:evenodd;stroke:none"
             id="path348"
             inkscape:connector-curvature="0" /></g><g
           id="g350"
           transform="translate(359.7715,497.6758)"><path
             d="m 0,0 c -7.991,-8.656 -32.376,-20.281 -48.358,0.362 -1.762,5.367 -1.268,8.236 3.394,6.905 -0.333,4.994 4.17,6.855 8.499,4.524 6.326,-6.658 20.409,-3.232 23.072,1.097 4.119,1.12 6.687,-0.539 6.687,-6.201 C 1.617,10.684 3.329,4.329 0,0"
             style="fill:#ffcd61;fill-opacity:1;fill-rule:evenodd;stroke:none"
             id="path352"
             inkscape:connector-curvature="0" /></g><g
           id="g354"
           transform="translate(311.8818,497.3887)"><path
             d="M 0,0 0,-1.819 C -0.637,-0.947 -1.014,0.149 -0.921,1.413 -0.684,0.96 -0.365,0.48 0,0 M 0,-17.77 C -2.456,-11.67 -3.698,-1.006 -2.87,0.485 -5.442,-1.484 -4.644,-13.37 0,-18.79 l 0,1.02 z M 0,-1.819 0,0 C 1.205,-1.588 2.93,-3.208 3.997,-4.062 2.566,-3.976 0.978,-3.161 0,-1.819 M 40.357,-5.473 39.91,-5.732 c 0.143,-0.025 0.292,-0.038 0.447,-0.042 l 0,0.301 z m 0,11.92 0,-0.106 C 33.623,-0.394 18.211,-7.178 4.729,6.356 18.48,-4.797 33.814,1.406 40.357,6.447 M 0.935,-19.745 C 0.606,-19.168 0.295,-18.502 0,-17.77 l 0,-1.02 c 0.296,-0.347 0.607,-0.666 0.935,-0.955 m 39.422,26.086 0,0.106 C 40.511,6.565 40.66,6.683 40.804,6.799 40.66,6.646 40.51,6.494 40.357,6.341 m 4.369,-13.175 0,-3.074 c -1.811,-4.277 -3.423,-9.288 -3.423,-12.807 -1.298,4.591 0.833,11.249 3.423,15.881 m 0,4.138 0,-1.499 c -1.493,-1.049 -3.122,-1.617 -4.369,-1.579 l 0,0.301 c 1.167,0.68 2.821,1.654 4.369,2.777 m 0,-1.499 c 1.715,1.206 3.25,3.047 3.815,5.33 -0.71,-1.331 -2.205,-2.662 -3.815,-3.831 l 0,-1.499 z m 0,-5.713 0,3.074 c 1.571,2.811 3.311,4.875 4.557,5.277 -0.826,-0.688 -2.786,-4.168 -4.557,-8.351"
             style="fill:#dea21f;fill-opacity:1;fill-rule:evenodd;stroke:none"
             id="path356"
             inkscape:connector-curvature="0" /></g><g
           id="g358"
           transform="translate(312.4834,548.3184)"><path
             d="m 0,0 c -1.099,-4.393 -0.819,-15.227 3.53,-18.737 4.35,-3.51 6.82,-4.049 7.551,-0.022 1.367,7.521 21.018,7.521 22.385,0 0.731,-4.027 3.201,-3.488 7.551,0.022 4.349,3.51 4.629,14.344 3.53,18.737 0.533,4.53 3.974,4.289 2.988,1.015 -0.566,-1.881 0.479,-4.419 0.865,-6.001 1.421,-5.816 0.363,-11.978 -3.666,-18.934 -9.659,-16.684 -35.261,-16.684 -44.921,0 -4.029,6.956 -5.086,13.118 -3.666,18.934 0.387,1.582 1.431,4.12 0.865,6.001 C -3.975,4.289 -0.533,4.53 0,0"
             style="fill:#c48872;fill-opacity:1;fill-rule:evenodd;stroke:none"
             id="path360"
             inkscape:connector-curvature="0" /></g><g
           id="g362"
           transform="translate(334.792,533.2168)"><path
             d="m 0,0 c 5.509,0 9.976,-3.041 9.976,-6.792 0,-2.714 0,-6.144 -4.108,-6.144 -4.042,0 -2.864,3.433 -5.769,3.391 -3.19,-0.046 -2.321,-3.345 -6.267,-3.344 -3.726,10e-4 -3.808,3.439 -3.808,6.097 C -9.976,-2.975 -5.51,0 0,0"
             style="fill:#f7d6b2;fill-opacity:1;fill-rule:evenodd;stroke:none"
             id="path364"
             inkscape:connector-curvature="0" /></g><g
           id="g366"
           transform="translate(323.8936,553.4971)"><path
             d="m 0,0 c -3.604,0.193 -8.399,-0.219 -9.274,-0.499 -1.119,-0.359 -1.151,-0.451 -1.201,-1.301 -0.05,-0.85 0.09,-1.581 0.75,-1.801 0.901,-0.299 0.909,-1.437 1.5,-4.702 0.54,-2.972 1.853,-5.324 7.503,-5.751 0.248,-0.019 0.489,-0.029 0.722,-0.033 l 0,0.829 c -2.56,0.008 -5.406,0.924 -6.424,2.755 -1.445,2.602 -1.805,7.858 0.051,8.953 0.808,0.477 3.543,0.8 6.373,0.669 L 0,0 z M 10.783,-1.7 C 9.533,-1.728 4.377,-0.349 0.729,-0.05 0.493,-0.03 0.25,-0.014 0,0 l 0,-0.881 c 2.943,-0.137 5.989,-0.764 7.082,-2.22 1.8,-2.4 -1.101,-8.253 -3.852,-9.553 C 2.37,-13.061 1.218,-13.262 0,-13.258 l 0,-0.829 c 4.986,-0.072 6.709,3.235 7.281,4.334 1.071,2.051 0.742,4.879 3.542,4.879 2.801,0 2.522,-2.777 3.592,-4.829 0.573,-1.099 2.25,-4.451 7.231,-4.384 l 0,0.829 c -1.216,-0.004 -2.369,0.197 -3.229,0.604 -2.751,1.3 -5.652,7.153 -3.852,9.553 1.092,1.456 4.138,2.083 7.081,2.22 l 0,0.881 C 21.397,-0.014 21.153,-0.03 20.918,-0.05 17.653,-0.317 13.725,-1.635 10.783,-1.7 m 10.863,-12.387 c 0.234,0.004 0.474,0.014 0.722,0.033 5.651,0.427 6.964,2.779 7.503,5.751 0.592,3.265 0.6,4.403 1.5,4.702 0.661,0.22 0.801,0.951 0.751,1.801 -0.05,0.85 -0.083,0.942 -1.201,1.301 -0.875,0.28 -5.67,0.692 -9.275,0.499 l 0,-0.881 c 2.831,0.131 5.566,-0.192 6.375,-0.669 1.854,-1.095 1.495,-6.351 0.049,-8.953 -1.016,-1.831 -3.863,-2.747 -6.424,-2.755 l 0,-0.829 z"
             style="fill:#00806f;fill-opacity:1;fill-rule:evenodd;stroke:none"
             id="path368"
             inkscape:connector-curvature="0" /></g><g
           id="g370"
           transform="translate(321.9678,691.1895)"><path
             d="M 0,0 C -13.255,0 -24,10.745 -24,24 -24,37.255 -13.255,48 0,48 13.254,48 24,37.255 24,24 24,10.745 13.254,0 0,0"
             style="fill:#ffcd61;fill-opacity:1;fill-rule:evenodd;stroke:none"
             id="path372"
             inkscape:connector-curvature="0" /></g><g
           id="g374"
           transform="translate(313.291,726.4199)"><path
             d="m 0,0 c -1.358,-2.508 -4.087,-17.382 -0.221,-25.95 3.867,-8.569 13.639,-8.858 13.849,-3.946 C 13.836,-24.985 2.612,1.984 0,0"
             style="fill:#c48872;fill-opacity:1;fill-rule:evenodd;stroke:none"
             id="path376"
             inkscape:connector-curvature="0" /></g><g
           id="g378"
           transform="translate(330.2715,726.4277)"><path
             d="M 0,0 C 1.358,-2.508 3.892,-16.469 0.025,-25.036 -3.841,-33.604 -13.481,-34.815 -13.69,-29.904 -13.899,-24.993 -2.612,1.985 0,0"
             style="fill:#c48872;fill-opacity:1;fill-rule:evenodd;stroke:none"
             id="path380"
             inkscape:connector-curvature="0" /></g><g
           id="g382"
           transform="translate(312.9951,704.2334)"><path
             d="m 0,0 c -2.365,-1.535 -3.344,-4.834 -4.731,-8.741 3.887,-2.711 8.614,-4.303 13.712,-4.303 5.091,0 9.811,1.586 13.695,4.289 C 21.292,-4.829 20.329,-1.499 17.936,0 13.841,2.564 11.376,3.179 8.959,3.212 6.488,3.245 4.066,2.64 0,0"
             style="fill:#7e9c9b;fill-opacity:1;fill-rule:evenodd;stroke:none"
             id="path384"
             inkscape:connector-curvature="0" /></g><g
           id="g386"
           transform="translate(318.5713,716.457)"><path
             d="m 0,0 6.783,0 0,-9.812 c 0,-3.311 -6.783,-3.692 -6.783,0 L 0,0 z"
             style="fill:#ffddb8;fill-opacity:1;fill-rule:evenodd;stroke:none"
             id="path388"
             inkscape:connector-curvature="0" /></g><g
           id="g390"
           transform="translate(325.3545,710.2969)"><path
             d="m 0,0 0,1.254 -6.783,0 0,-4.617 L 0,0 z"
             style="fill:#e8c5a0;fill-opacity:1;fill-rule:evenodd;stroke:none"
             id="path392"
             inkscape:connector-curvature="0" /></g><g
           id="g394"
           transform="translate(321.9629,728.9336)"><path
             d="M 0,0 C 14.365,0 8.542,-18.977 0,-18.977 -8.542,-18.977 -14.365,0 0,0"
             style="fill:#f0ceaa;fill-opacity:1;fill-rule:evenodd;stroke:none"
             id="path396"
             inkscape:connector-curvature="0" /></g><g
           id="g398"
           transform="translate(321.9629,728.9336)"><path
             d="M 0,0 C 14.365,0 8.542,-18.977 0,-18.977 L 0,0 z"
             style="fill:#ffddb8;fill-opacity:1;fill-rule:evenodd;stroke:none"
             id="path400"
             inkscape:connector-curvature="0" /></g><g
           id="g402"
           transform="translate(324.8838,727.1055)"><path
             d="M 0,0 C 2.38,-1.174 3.847,-3.137 4.356,-6.146 4.867,-9.154 5.239,-8.723 6.281,-6.5 7.322,-4.275 4.771,5.313 -2.68,5.313 c -7.45,0 -10.5,-7.376 -9.459,-11.407 1.042,-4.031 1.855,-2.713 2.506,0.345 C -8.981,-2.691 -5.79,0.312 0,0"
             style="fill:#c48872;fill-opacity:1;fill-rule:evenodd;stroke:none"
             id="path404"
             inkscape:connector-curvature="0" /></g><g
           id="g406"
           transform="translate(328.6943,703.9424)"><path
             d="M 0,0 C 4.18,14.211 -2.402,23.093 -3.865,23.197 -1.046,23.906 5.609,15.068 0,0"
             style="fill:#7d5f54;fill-opacity:1;fill-rule:evenodd;stroke:none"
             id="path408"
             inkscape:connector-curvature="0" /></g><g
           id="g410"
           transform="translate(325.3857,706.9727)"><path
             d="m 0,0 c -0.314,-3.248 -3.395,-6.022 -3.395,-8.648 0,2.632 -3.095,5.408 -3.396,8.673 L 0,0 z"
             style="fill:#ffddb8;fill-opacity:1;fill-rule:evenodd;stroke:none"
             id="path412"
             inkscape:connector-curvature="0" /></g><g
           id="g414"
           transform="translate(321.9912,699.5254)"><path
             d="M 0,0 C 1.482,2.217 3.028,3.491 4.893,4.072 5.813,4.359 7.429,4.666 8.294,4.244 6.657,6.104 4.936,7.035 3.395,8.786 3.377,3.735 -0.032,2.85 0,0"
             style="fill:#e1e6f7;fill-opacity:1;fill-rule:evenodd;stroke:none"
             id="path416"
             inkscape:connector-curvature="0" /></g><g
           id="g418"
           transform="translate(321.9912,699.5254)"><path
             d="M 0,0 C 1.109,2.36 2.827,4.353 4.691,4.934 5.612,5.221 6.48,5.154 7.346,4.732 5.709,6.593 4.936,7.667 3.395,8.786 3.377,3.735 -0.032,2.85 0,0"
             style="fill:#ffffff;fill-opacity:1;fill-rule:evenodd;stroke:none"
             id="path420"
             inkscape:connector-curvature="0" /></g><g
           id="g422"
           transform="translate(321.9912,699.5254)"><path
             d="m 0,0 c -1.482,2.217 -3.028,3.491 -4.893,4.072 -0.92,0.287 -2.537,0.594 -3.401,0.172 1.637,1.86 3.358,2.791 4.899,4.542 C -3.377,3.735 0.031,2.85 0,0"
             style="fill:#e1e6f7;fill-opacity:1;fill-rule:evenodd;stroke:none"
             id="path424"
             inkscape:connector-curvature="0" /></g><g
           id="g426"
           transform="translate(321.9912,699.5254)"><path
             d="m 0,0 c -1.109,2.36 -2.827,4.353 -4.691,4.934 -0.922,0.287 -1.79,0.22 -2.655,-0.202 1.637,1.861 2.41,2.935 3.951,4.054 C -3.377,3.735 0.031,2.85 0,0"
             style="fill:#ffffff;fill-opacity:1;fill-rule:evenodd;stroke:none"
             id="path428"
             inkscape:connector-curvature="0" /></g><g
           id="g430"
           transform="translate(315.6855,701.1738)"><path
             d="M 0,0 C -4.895,28.66 6.587,25.406 9.195,25.913 5.925,29.416 -9.015,29.638 0,0"
             style="fill:#7d5f54;fill-opacity:1;fill-rule:evenodd;stroke:none"
             id="path432"
             inkscape:connector-curvature="0" /></g><g
           id="g434"
           transform="translate(314.6172,705.1162)"><path
             d="m 0,0 c -1.214,-0.743 -1.742,-2.499 -1.911,-3.868 2.404,0.521 5.082,-0.911 5.535,-1.563 -1.807,-1.013 -2.317,-1.954 -3.315,-3.258 0.856,-1.147 2.663,-2.848 4.268,-5.078 0.213,-0.024 0.428,-0.046 0.642,-0.065 -1.44,2.359 -3.188,4.067 -4.076,5.257 0.998,1.304 1.707,2.016 3.513,3.029 -0.453,0.652 -3.567,3.17 -5.971,2.649 C -1.066,-1.528 -0.937,-0.971 0,0"
             style="fill:#3c6634;fill-opacity:1;fill-rule:evenodd;stroke:none"
             id="path436"
             inkscape:connector-curvature="0" /></g><g
           id="g438"
           transform="translate(329.4053,705.1162)"><path
             d="m 0,0 c 1.215,-0.743 1.742,-2.499 1.912,-3.868 -2.405,0.521 -5.082,-0.911 -5.536,-1.563 1.808,-1.013 2.318,-1.954 3.316,-3.258 -0.855,-1.145 -2.663,-2.843 -4.27,-5.068 -0.214,-0.025 -0.429,-0.048 -0.645,-0.067 1.443,2.354 3.194,4.06 4.081,5.249 -0.998,1.304 -1.708,2.016 -3.514,3.029 0.453,0.652 3.568,3.17 5.972,2.649 C 1.067,-1.528 0.937,-0.971 0,0"
             style="fill:#3c6634;fill-opacity:1;fill-rule:evenodd;stroke:none"
             id="path440"
             inkscape:connector-curvature="0" /></g><g
           id="g442"
           transform="translate(321.918,691.1895)"><path
             d="M 0,0 C -0.027,2.706 0.015,6.062 0.177,7.972 -0.403,5.888 -0.46,2.617 -0.306,0.004 -0.204,0.003 -0.103,0 0,0"
             style="fill:#3c6634;fill-opacity:1;fill-rule:evenodd;stroke:none"
             id="path444"
             inkscape:connector-curvature="0" /></g><g
           id="g446"
           transform="translate(71.3672,518.4805)"><path
             d="M 0,0 C -13.255,0 -24,10.745 -24,24 -24,37.255 -13.255,48 0,48 13.255,48 24,37.255 24,24 24,10.745 13.255,0 0,0"
             style="fill:#cbe3e2;fill-opacity:1;fill-rule:evenodd;stroke:none"
             id="path448"
             inkscape:connector-curvature="0" /></g><g
           id="g450"
           transform="translate(62.3965,527.2217)"><path
             d="m 0,0 c -1.618,-1.051 -2.588,-2.928 -3.483,-5.261 3.63,-2.208 7.893,-3.48 12.454,-3.48 4.564,0 8.831,1.274 12.464,3.486 C 20.542,-2.909 19.574,-1.025 17.937,0 13.841,2.565 11.377,3.179 8.96,3.212 6.488,3.245 4.066,2.641 0,0"
             style="fill:#ffffff;fill-opacity:1;fill-rule:evenodd;stroke:none"
             id="path452"
             inkscape:connector-curvature="0" /></g><g
           id="g454"
           transform="translate(67.9736,540.2617)"><path
             d="m 0,0 6.783,0 0,-9.812 c 0,-3.311 -6.783,-3.692 -6.783,0 L 0,0 z"
             style="fill:#ffddb8;fill-opacity:1;fill-rule:evenodd;stroke:none"
             id="path456"
             inkscape:connector-curvature="0" /></g><g
           id="g458"
           transform="translate(74.7568,533.2861)"><path
             d="m 0,0 0,1.254 -6.783,0 0,-4.618 L 0,0 z"
             style="fill:#e8c5a0;fill-opacity:1;fill-rule:evenodd;stroke:none"
             id="path460"
             inkscape:connector-curvature="0" /></g><g
           id="g462"
           transform="translate(71.3652,551.9219)"><path
             d="M 0,0 C 14.365,0 8.542,-18.976 0,-18.976 -8.542,-18.976 -14.366,0 0,0"
             style="fill:#ffddb8;fill-opacity:1;fill-rule:evenodd;stroke:none"
             id="path464"
             inkscape:connector-curvature="0" /></g><g
           id="g466"
           transform="translate(75.376,550.6191)"><path
             d="M 0,0 C 2.676,-0.752 3.271,-4.571 3.809,-6.58 4.59,-9.499 4.148,-9.248 5.19,-7.024 6.232,-4.801 3.681,4.788 -3.77,4.788 c -7.45,0 -10.501,-7.377 -9.459,-11.407 1.042,-4.03 1.042,-3.073 1.694,-0.016 0.648,3.045 1.779,5.899 3.337,6.502 1.227,0.477 2.902,-0.384 4.285,-0.324 C -2.52,-0.396 -1.268,0.355 0,0"
             style="fill:#7d5f54;fill-opacity:1;fill-rule:evenodd;stroke:none"
             id="path468"
             inkscape:connector-curvature="0" /></g><g
           id="g470"
           transform="translate(80.5957,545.3926)"><path
             d="m 0,0 c 0.523,-0.116 0.729,-1.192 0.459,-2.402 -0.27,-1.211 -0.911,-2.099 -1.435,-1.983 -0.522,0.117 -0.728,1.193 -0.459,2.404 C -1.165,-0.771 -0.522,0.116 0,0"
             style="fill:#ffddb8;fill-opacity:1;fill-rule:evenodd;stroke:none"
             id="path472"
             inkscape:connector-curvature="0" /></g><g
           id="g474"
           transform="translate(62.1426,545.3926)"><path
             d="m 0,0 c -0.522,-0.116 -0.729,-1.192 -0.459,-2.402 0.27,-1.211 0.912,-2.099 1.435,-1.983 0.523,0.117 0.728,1.193 0.459,2.404 C 1.165,-0.771 0.522,0.116 0,0"
             style="fill:#f7d6b2;fill-opacity:1;fill-rule:evenodd;stroke:none"
             id="path476"
             inkscape:connector-curvature="0" /></g><g
           id="g478"
           transform="translate(70.6221,524.4668)"><path
             d="m 0,0 -0.424,-5.957 c 0.388,-0.019 0.778,-0.029 1.169,-0.029 0.387,0 0.772,0.009 1.153,0.028 L 1.475,0 3.871,5.739 c -2.243,0.04 -4.038,0.035 -6.267,0 L 0,0 z"
             style="fill:#e6615f;fill-opacity:1;fill-rule:evenodd;stroke:none"
             id="path480"
             inkscape:connector-curvature="0" /></g><g
           id="g482"
           transform="translate(68.0801,532.2617)"><path
             d="M 0,0 -2.608,-3.321 -1.123,-7.222 3.314,-2.027 0,0 z"
             style="fill:#bcc2d6;fill-opacity:1;fill-rule:evenodd;stroke:none"
             id="path484"
             inkscape:connector-curvature="0" /></g><g
           id="g486"
           transform="translate(68.0801,532.2617)"><path
             d="m 0,0 -2.608,-3.321 1.622,-3.03 4.3,4.324 L 0,0 z"
             style="fill:#ffffff;fill-opacity:1;fill-rule:evenodd;stroke:none"
             id="path488"
             inkscape:connector-curvature="0" /></g><g
           id="g490"
           transform="translate(74.8623,532.2617)"><path
             d="M 0,0 2.608,-3.321 1.123,-7.222 -3.314,-2.027 0,0 z"
             style="fill:#e1e6f7;fill-opacity:1;fill-rule:evenodd;stroke:none"
             id="path492"
             inkscape:connector-curvature="0" /></g><g
           id="g494"
           transform="translate(74.8623,532.2617)"><path
             d="m 0,0 2.608,-3.321 -1.622,-3.03 -4.3,4.324 L 0,0 z"
             style="fill:#ffffff;fill-opacity:1;fill-rule:evenodd;stroke:none"
             id="path496"
             inkscape:connector-curvature="0" /></g><g
           id="g498"
           transform="translate(187.9863,552.2637)"><path
             d="m 0,0 c -26.51,0 -48,21.491 -48,48.001 0,26.51 21.49,48 48,48 26.51,0 48,-21.49 48,-48 C 48,21.491 26.51,0 0,0"
             style="fill:#e6615f;fill-opacity:1;fill-rule:evenodd;stroke:none"
             id="path500"
             inkscape:connector-curvature="0" /></g><g
           id="g502"
           transform="translate(168.8535,602.2314)"><path
             d="m 0,0 c 1.465,-9.528 -2.843,-20.643 -4.792,-13.289 -4.073,-5.115 0.689,-26.003 17.79,-15.875 C 30.099,-19.036 16.09,19.504 0,0"
             style="fill:#ad4947;fill-opacity:1;fill-rule:evenodd;stroke:none"
             id="path504"
             inkscape:connector-curvature="0" /></g><g
           id="g506"
           transform="translate(207.1807,602.2314)"><path
             d="M 0,0 C -1.761,-11.299 2.842,-20.643 4.792,-13.289 8.865,-18.404 4.103,-39.292 -12.998,-29.164 -30.1,-19.036 -16.09,19.504 0,0"
             style="fill:#ad4947;fill-opacity:1;fill-rule:evenodd;stroke:none"
             id="path508"
             inkscape:connector-curvature="0" /></g><g
           id="g510"
           transform="translate(170.0459,569.7471)"><path
             d="m 0,0 c -3.236,-2.102 -5.176,-5.856 -6.967,-10.522 7.261,-4.416 15.787,-6.961 24.907,-6.961 9.129,0 17.663,2.548 24.927,6.972 C 41.084,-5.819 39.148,-2.052 35.873,0 27.682,5.129 22.753,6.357 17.919,6.423 12.977,6.49 8.133,5.28 0,0"
             style="fill:#ffcd61;fill-opacity:1;fill-rule:evenodd;stroke:none"
             id="path512"
             inkscape:connector-curvature="0" /></g><g
           id="g514"
           transform="translate(181.1992,594.1943)"><path
             d="m 0,0 13.566,0 0,-19.624 c 0,-6.622 -13.566,-7.384 -13.566,0 L 0,0 z"
             style="fill:#ffddb8;fill-opacity:1;fill-rule:evenodd;stroke:none"
             id="path516"
             inkscape:connector-curvature="0" /></g><g
           id="g518"
           transform="translate(194.7656,581.875)"><path
             d="m 0,0 0,2.508 -13.566,0 0,-9.236 L 0,0 z"
             style="fill:#e8c5a0;fill-opacity:1;fill-rule:evenodd;stroke:none"
             id="path520"
             inkscape:connector-curvature="0" /></g><g
           id="g522"
           transform="translate(187.9824,619.1475)"><path
             d="M 0,0 C 28.731,0 17.084,-37.952 0,-37.952 -17.084,-37.952 -28.731,0 0,0"
             style="fill:#ffddb8;fill-opacity:1;fill-rule:evenodd;stroke:none"
             id="path524"
             inkscape:connector-curvature="0" /></g><g
           id="g526"
           transform="translate(187.9912,557.293)"><path
             d="m 0,0 c 0,2.489 -6.705,11.451 -6.705,16.29 l 13.41,0 C 6.705,11.451 0,2.489 0,0"
             style="fill:#ffddb8;fill-opacity:1;fill-rule:evenodd;stroke:none"
             id="path528"
             inkscape:connector-curvature="0" /></g><g
           id="g530"
           transform="translate(184.9004,552.3652)"><path
             d="m 0,0 c -2.666,4.48 -6.683,8.938 -10.531,8.455 -0.861,2.86 -0.124,5.086 1.173,7.645 -1.562,0.261 -2.54,-0.012 -4.506,-0.965 -0.656,3.624 5.356,10.21 10.163,11.735 0,-2.67 -0.277,-7.786 2.345,-11.22 C 0.437,13.302 1.851,6.092 2.564,-0.094 1.704,-0.084 0.849,-0.054 0,0"
             style="fill:#eda200;fill-opacity:1;fill-rule:evenodd;stroke:none"
             id="path532"
             inkscape:connector-curvature="0" /></g><g
           id="g534"
           transform="translate(185.8555,552.3135)"><path
             d="m 0,0 c -2.566,4.844 -6.968,10.476 -10.552,10.476 0.081,3.041 0.344,4.484 2.092,6.773 -2.403,0.381 -4.15,-0.061 -6.116,-1.016 0.597,3.624 6.2,9.163 9.92,10.689 0,-2.67 -0.277,-7.786 2.344,-11.22 C -0.394,13.19 1.09,5.822 1.748,-0.044 1.163,-0.039 0.58,-0.025 0,0"
             style="fill:#ffcd61;fill-opacity:1;fill-rule:evenodd;stroke:none"
             id="path536"
             inkscape:connector-curvature="0" /></g><g
           id="g538"
           transform="translate(187.9756,556.7178)"><path
             d="m 0,0 c -4.252,6.315 -8.893,8.37 -11.729,8.376 0.599,2.818 2.136,5.92 3.234,7.118 -4.569,-0.04 -5.997,-0.975 -7.964,-2.411 0.598,3.624 5.963,7.909 9.683,9.435 0,-2.67 -0.277,-7.787 2.344,-11.22 C -1.811,7.864 0,5.34 0,0"
             style="fill:#ffffff;fill-opacity:1;fill-rule:evenodd;stroke:none"
             id="path540"
             inkscape:connector-curvature="0" /></g><g
           id="g542"
           transform="translate(191.0498,552.3643)"><path
             d="m 0,0 c 2.667,4.48 6.684,8.938 10.533,8.456 0.861,2.86 0.123,5.086 -1.174,7.645 1.562,0.261 2.54,-0.012 4.507,-0.965 0.655,3.624 -5.357,10.21 -10.163,11.735 0,-2.67 2.309,-8.195 -1.929,-11.339 -2.923,-2.169 -4.922,-9.363 -5.327,-15.626 0.163,-0.002 0.326,-0.007 0.49,-0.007 1.029,0 2.05,0.038 3.063,0.101"
             style="fill:#eda200;fill-opacity:1;fill-rule:evenodd;stroke:none"
             id="path544"
             inkscape:connector-curvature="0" /></g><g
           id="g546"
           transform="translate(190.0957,552.3125)"><path
             d="m 0,0 c 2.566,4.844 6.968,10.477 10.553,10.477 -0.081,3.041 -0.345,4.484 -2.093,6.773 2.403,0.381 4.15,-0.061 6.117,-1.016 -0.598,3.624 -6.2,9.163 -9.92,10.689 0,-2.67 0.459,-8.106 -2.345,-11.22 C 0.228,13.389 -1.361,6.008 -1.925,-0.046 -1.28,-0.043 -0.638,-0.026 0,0"
             style="fill:#ffcd61;fill-opacity:1;fill-rule:evenodd;stroke:none"
             id="path548"
             inkscape:connector-curvature="0" /></g><g
           id="g550"
           transform="translate(187.9756,556.7178)"><path
             d="m 0,0 c 4.252,6.315 8.893,8.37 11.729,8.376 -0.598,2.818 -2.136,5.92 -3.233,7.118 4.568,-0.04 5.997,-0.975 7.963,-2.411 -0.598,3.624 -5.962,7.909 -9.682,9.435 0,-2.67 0.277,-7.787 -2.345,-11.22 C 1.811,7.864 0,5.34 0,0"
             style="fill:#ffffff;fill-opacity:1;fill-rule:evenodd;stroke:none"
             id="path552"
             inkscape:connector-curvature="0" /></g><g
           id="g554"
           transform="translate(187.4961,614.5889)"><path
             d="m 0,0 c 9.636,0 14.301,-6.33 14.609,-11.208 0.309,-4.879 2.009,-5.336 4.093,-0.889 2.083,4.448 -3.02,23.626 -17.921,23.626 -14.9,0 -21.001,-14.755 -18.917,-22.815 2.083,-8.061 4.665,-3.49 4.566,-0.031 C -13.67,-7.858 -10.678,-0.278 0,0"
             style="fill:#ad4947;fill-opacity:1;fill-rule:evenodd;stroke:none"
             id="path556"
             inkscape:connector-curvature="0" /></g><g
           id="g558"
           transform="translate(206.4443,606.0879)"><path
             d="M 0,0 C 1.046,-0.232 1.457,-2.384 0.918,-4.806 0.379,-7.227 -0.905,-9.001 -1.951,-8.769 -2.996,-8.535 -3.407,-6.384 -2.869,-3.963 -2.33,-1.541 -1.045,0.233 0,0"
             style="fill:#ffddb8;fill-opacity:1;fill-rule:evenodd;stroke:none"
             id="path560"
             inkscape:connector-curvature="0" /></g><g
           id="g562"
           transform="translate(169.5381,606.0879)"><path
             d="m 0,0 c -1.046,-0.232 -1.457,-2.384 -0.918,-4.806 0.539,-2.421 1.823,-4.195 2.869,-3.963 1.046,0.234 1.456,2.385 0.918,4.806 C 2.33,-1.541 1.046,0.233 0,0"
             style="fill:#f7d6b2;fill-opacity:1;fill-rule:evenodd;stroke:none"
             id="path564"
             inkscape:connector-curvature="0" /></g><g
           id="g566"
           transform="translate(175.8096,618.0752)"><path
             d="M 0,0 C -0.931,-5.699 14.679,-12.32 27.206,-12.866 28.338,1.942 9.804,5.509 0,0"
             style="fill:#ad4947;fill-opacity:1;fill-rule:evenodd;stroke:none"
             id="path568"
             inkscape:connector-curvature="0" /></g><g
           id="g570"
           transform="translate(172.5381,604.0049)"><path
             d="M 0,0 C 0.155,-0.747 -0.088,-3.459 0.021,-4.033 0.129,-4.608 3.333,-6.158 5.762,-6.385 6.245,-6.43 6.774,-6.473 7.314,-6.507 l 0,0.539 C 7.109,-5.949 6.903,-5.927 6.698,-5.9 4.726,-5.643 2.573,-5.062 1.93,-4.4 c -0.643,0.662 -0.631,2.792 -0.635,3.217 -0.008,0.782 3.816,0.7 6.019,0.464 l 0,0.64 C 4.602,0.22 0.022,0.378 0,0 m 7.314,-6.507 c 2.176,-0.139 4.547,-0.154 4.957,0.254 0.513,0.509 1.501,2.354 1.613,2.802 0.15,0.607 2.501,0.497 2.638,-0.046 0.113,-0.447 1.107,-2.289 1.621,-2.797 0.411,-0.406 2.771,-0.383 4.942,-0.238 l 0,0.539 c -1.765,-0.162 -3.491,-0.019 -4.302,0.363 -0.906,0.427 -2.004,2.574 -1.646,3.222 0.357,0.646 3.467,1.349 5.58,1.622 0.116,0.015 0.24,0.03 0.368,0.044 l 0,0.639 c -0.337,-0.039 -0.647,-0.079 -0.914,-0.121 -3.161,-0.491 -5.09,-1.018 -6.773,-1.041 -1.918,-0.026 -3.561,0.519 -7.174,1.069 -0.266,0.041 -0.574,0.08 -0.91,0.117 l 0,-0.64 c 0.128,-0.013 0.25,-0.027 0.366,-0.042 2.114,-0.265 5.225,-0.958 5.586,-1.603 0.359,-0.646 -0.732,-2.797 -1.637,-3.227 -0.812,-0.386 -2.543,-0.535 -4.315,-0.377 l 0,-0.539 z m 15.771,-0.025 c 0.547,0.037 1.081,0.081 1.569,0.129 2.428,0.234 5.626,1.795 5.733,2.37 0.106,0.574 -0.146,3.285 0.007,4.033 -0.024,0.377 -4.595,0.205 -7.309,-0.103 l 0,-0.639 c 2.204,0.242 6.023,0.336 6.019,-0.445 -0.003,-0.425 0.015,-2.555 -0.625,-3.22 -0.641,-0.664 -2.792,-1.251 -4.763,-1.515 -0.21,-0.028 -0.421,-0.052 -0.631,-0.071 l 0,-0.539 z"
             style="fill:#e6615f;fill-opacity:1;fill-rule:evenodd;stroke:none"
             id="path572"
             inkscape:connector-curvature="0" /></g><g
           id="g574"
           transform="translate(586.4277,367.3789)"><path
             d="m 0,0 c -42.813,0 -77.52,34.708 -77.52,77.521 0,42.813 34.707,77.52 77.52,77.52 42.813,0 77.52,-34.707 77.52,-77.52 C 77.52,34.708 42.813,0 0,0"
             style="fill:#ffcd61;fill-opacity:1;fill-rule:evenodd;stroke:none"
             id="path576"
             inkscape:connector-curvature="0" /></g><g
           id="g578"
           transform="translate(558.4023,467.4316)"><path
             d="m 0,0 c -4.387,-5.571 -13.199,-38.613 -0.711,-57.648 2.566,-3.912 5.94,-7.045 9.684,-9.463 6.095,-1.059 12.478,-1.623 19.052,-1.623 5.407,0 10.684,0.38 15.778,1.106 0.115,0.386 0.187,0.793 0.215,1.214 C 44.691,-55.503 8.439,4.41 0,0"
             style="fill:#7d5f54;fill-opacity:1;fill-rule:evenodd;stroke:none"
             id="path580"
             inkscape:connector-curvature="0" /></g><g
           id="g582"
           transform="translate(613.25,467.4492)"><path
             d="m 0,0 c 4.389,-5.57 12.568,-36.584 0.082,-55.619 -3.586,-5.464 -8.709,-9.582 -14.209,-12.418 -4.131,-0.469 -8.371,-0.715 -12.695,-0.715 -5.928,0 -11.699,0.459 -17.246,1.327 -0.08,0.316 -0.133,0.648 -0.155,0.994 C -44.896,-55.521 -8.438,4.41 0,0"
             style="fill:#7d5f54;fill-opacity:1;fill-rule:evenodd;stroke:none"
             id="path584"
             inkscape:connector-curvature="0" /></g><g
           id="g586"
           transform="translate(557.4453,395.6562)"><path
             d="m 0,0 c -5.234,-3.398 -8.367,-9.475 -11.264,-17.023 11.733,-7.141 25.508,-11.254 40.246,-11.254 14.747,0 28.53,4.117 40.264,11.265 C 66.363,-9.418 63.234,-3.318 57.936,0 44.707,8.284 36.746,10.268 28.939,10.374 20.957,10.483 13.135,8.528 0,0"
             style="fill:#cbe3e2;fill-opacity:1;fill-rule:evenodd;stroke:none"
             id="path588"
             inkscape:connector-curvature="0" /></g><g
           id="g590"
           transform="translate(575.457,435.1387)"><path
             d="m 0,0 21.912,0 0,-31.691 C 21.912,-42.389 0,-43.617 0,-31.691 L 0,0 z"
             style="fill:#ffddb8;fill-opacity:1;fill-rule:evenodd;stroke:none"
             id="path592"
             inkscape:connector-curvature="0" /></g><g
           id="g594"
           transform="translate(597.3672,415.2432)"><path
             d="m 0,0 0,4.051 -21.91,0 0,-14.915 L 0,0 z"
             style="fill:#e8c5a0;fill-opacity:1;fill-rule:evenodd;stroke:none"
             id="path596"
             inkscape:connector-curvature="0" /></g><g
           id="g598"
           transform="translate(586.4121,475.4385)"><path
             d="M 0,0 C 46.402,0 27.592,-61.293 0,-61.293 -27.59,-61.293 -46.4,0 0,0"
             style="fill:#ffddb8;fill-opacity:1;fill-rule:evenodd;stroke:none"
             id="path600"
             inkscape:connector-curvature="0" /></g><g
           id="g602"
           transform="translate(595.8477,469.5352)"><path
             d="m 0,0 c 7.687,-3.792 13.896,-12.799 15.545,-22.518 1.648,-9.718 1.377,-5.66 4.742,1.523 3.365,7.182 -4.877,38.156 -28.941,38.156 -24.065,0 -33.916,-23.829 -30.553,-36.847 3.365,-13.017 5.361,-9.424 7.465,0.452 C -29.641,-9.358 -21.076,2.19 0,0"
             style="fill:#7d5f54;fill-opacity:1;fill-rule:evenodd;stroke:none"
             id="path604"
             inkscape:connector-curvature="0" /></g><g
           id="g606"
           transform="translate(608.1582,416.127)"><path
             d="M 0,0 C 13.5,32.417 -7.764,52.678 -12.488,52.916 -3.381,54.534 18.115,34.373 0,0"
             style="fill:#c48872;fill-opacity:1;fill-rule:evenodd;stroke:none"
             id="path608"
             inkscape:connector-curvature="0" /></g><g
           id="g610"
           transform="translate(597.4687,404.5063)"><path
             d="m 0,0 c -1.018,-10.495 -10.965,-19.456 -10.965,-27.936 0,8.504 -9.998,17.469 -10.969,28.018 L 0,0 z"
             style="fill:#ffddb8;fill-opacity:1;fill-rule:evenodd;stroke:none"
             id="path612"
             inkscape:connector-curvature="0" /></g><g
           id="g614"
           transform="translate(586.5039,380.4473)"><path
             d="m 0,0 c 4.789,7.162 9.781,11.279 15.803,13.156 2.974,0.926 8.193,1.916 10.986,0.555 -5.287,6.01 -10.848,9.014 -15.824,14.672 C 10.906,12.066 -0.102,9.205 0,0"
             style="fill:#478c76;fill-opacity:1;fill-rule:evenodd;stroke:none"
             id="path616"
             inkscape:connector-curvature="0" /></g><g
           id="g618"
           transform="translate(586.5039,380.4473)"><path
             d="m 0,0 c 3.582,7.627 9.131,14.063 15.152,15.939 2.977,0.926 5.782,0.711 8.577,-0.65 -5.288,6.01 -7.788,9.477 -12.764,13.094 C 10.906,12.066 -0.102,9.205 0,0"
             style="fill:#cbe3e2;fill-opacity:1;fill-rule:evenodd;stroke:none"
             id="path620"
             inkscape:connector-curvature="0" /></g><g
           id="g622"
           transform="translate(586.5039,380.4473)"><path
             d="m 0,0 c -4.787,7.162 -9.781,11.279 -15.803,13.156 -2.974,0.926 -8.193,1.916 -10.986,0.555 5.287,6.01 10.848,9.014 15.824,14.672 C -10.906,12.066 0.104,9.205 0,0"
             style="fill:#478c76;fill-opacity:1;fill-rule:evenodd;stroke:none"
             id="path624"
             inkscape:connector-curvature="0" /></g><g
           id="g626"
           transform="translate(586.5039,380.4473)"><path
             d="m 0,0 c -3.582,7.627 -9.131,14.063 -15.152,15.939 -2.977,0.926 -5.782,0.711 -8.577,-0.65 5.29,6.01 7.788,9.477 12.764,13.094 C -10.906,12.066 0.104,9.205 0,0"
             style="fill:#cbe3e2;fill-opacity:1;fill-rule:evenodd;stroke:none"
             id="path628"
             inkscape:connector-curvature="0" /></g><g
           id="g630"
           transform="translate(566.1367,409.811)"><path
             d="M 0,0 C -15.188,66.026 22.613,59.351 29.701,59.113 19.139,67.103 -29.117,67.608 0,0"
             style="fill:#c48872;fill-opacity:1;fill-rule:evenodd;stroke:none"
             id="path632"
             inkscape:connector-curvature="0" /></g><g
           id="g634"
           transform="translate(706.1758,335.2227)"><path
             d="M 0,0 C -13.254,0 -24,10.746 -24,24 -24,37.256 -13.254,48 0,48 13.256,48 24,37.256 24,24 24,10.746 13.256,0 0,0"
             style="fill:#cbe3e2;fill-opacity:1;fill-rule:evenodd;stroke:none"
             id="path636"
             inkscape:connector-curvature="0" /></g><g
           id="g638"
           transform="translate(702.7793,356.2012)"><path
             d="m 0,0 6.783,0 0,-10.525 c 0,-3.313 -6.783,-3.694 -6.783,0 L 0,0 z"
             style="fill:#ffddb8;fill-opacity:1;fill-rule:evenodd;stroke:none"
             id="path640"
             inkscape:connector-curvature="0" /></g><g
           id="g642"
           transform="translate(697.2031,343.9785)"><path
             d="m 0,0 c -1.621,-1.053 -2.59,-2.934 -3.486,-5.271 3.631,-2.211 7.896,-3.485 12.459,-3.485 4.564,0 8.832,1.276 12.466,3.488 C 20.545,-2.916 19.578,-1.027 17.936,0 13.842,2.564 11.34,2.973 8.924,3.004 6.451,3.039 4.066,2.639 0,0"
             style="fill:#e6615f;fill-opacity:1;fill-rule:evenodd;stroke:none"
             id="path644"
             inkscape:connector-curvature="0" /></g><g
           id="g646"
           transform="translate(709.5625,350.041)"><path
             d="m 0,0 0,1.254 -6.783,0 0,-4.617 L 0,0 z"
             style="fill:#e8c5a0;fill-opacity:1;fill-rule:evenodd;stroke:none"
             id="path648"
             inkscape:connector-curvature="0" /></g><g
           id="g650"
           transform="translate(706.1719,368.6777)"><path
             d="M 0,0 C 14.365,0 8.541,-18.977 0,-18.977 -8.543,-18.977 -14.365,0 0,0"
             style="fill:#ffddb8;fill-opacity:1;fill-rule:evenodd;stroke:none"
             id="path652"
             inkscape:connector-curvature="0" /></g><g
           id="g654"
           transform="translate(705.4375,341.209)"><path
             d="m 0,0 -0.422,-5.957 c 0.385,-0.02 0.772,-0.029 1.16,-0.029 0.389,0 0.778,0.009 1.162,0.029 L 1.477,0 3.871,5.74 c -2.242,0.039 -4.037,0.035 -6.266,0 L 0,0 z"
             style="fill:#ffffff;fill-opacity:1;fill-rule:evenodd;stroke:none"
             id="path656"
             inkscape:connector-curvature="0" /></g><g
           id="g658"
           transform="translate(702.7793,348.9863)"><path
             d="M 0,0 -2.607,-3.32 -1.123,-7.221 3.314,-2.027 0,0 z"
             style="fill:#c94341;fill-opacity:1;fill-rule:evenodd;stroke:none"
             id="path660"
             inkscape:connector-curvature="0" /></g><g
           id="g662"
           transform="translate(702.7793,348.9863)"><path
             d="m 0,0 -2.607,-3.32 1.621,-3.03 4.3,4.323 L 0,0 z"
             style="fill:#e6615f;fill-opacity:1;fill-rule:evenodd;stroke:none"
             id="path664"
             inkscape:connector-curvature="0" /></g><g
           id="g666"
           transform="translate(709.5625,348.9863)"><path
             d="M 0,0 2.609,-3.32 1.123,-7.221 -3.314,-2.027 0,0 z"
             style="fill:#c94341;fill-opacity:1;fill-rule:evenodd;stroke:none"
             id="path668"
             inkscape:connector-curvature="0" /></g><g
           id="g670"
           transform="translate(709.5625,348.9863)"><path
             d="M 0,0 2.609,-3.32 0.986,-6.35 -3.314,-2.027 0,0 z"
             style="fill:#e6615f;fill-opacity:1;fill-rule:evenodd;stroke:none"
             id="path672"
             inkscape:connector-curvature="0" /></g><g
           id="g674"
           transform="translate(713.2559,362.7773)"><path
             d="m 0,0 c -0.029,1.572 -1.35,3.256 -2.307,3.734 -0.959,0.479 -5.8,-0.119 -8.3,-1.709 -2.704,-1.72 -3.202,-3.025 -3.381,-4.568 -0.057,-0.484 -0.188,-0.975 -0.45,-0.879 -0.828,0.301 -0.992,1.735 -1.695,2.156 -1.025,0.616 -0.556,2.479 -0.146,4.051 0.41,1.574 2.687,5.869 8.927,6.039 C -4.24,8.908 -2.975,7.031 -2.029,6.842 0.816,6.27 2.596,1.012 1.762,-1.371 1.387,-2.445 0.834,-3.227 0.064,-3.002 -0.287,-2.9 0.018,-0.912 0,0"
             style="fill:#ad4947;fill-opacity:1;fill-rule:evenodd;stroke:none"
             id="path676"
             inkscape:connector-curvature="0" /></g><g
           id="g678"
           transform="translate(715.3984,362.1484)"><path
             d="M 0,0 C 0.523,-0.117 0.729,-1.191 0.459,-2.402 0.189,-3.613 -0.453,-4.5 -0.977,-4.385 -1.498,-4.268 -1.705,-3.191 -1.436,-1.982 -1.166,-0.771 -0.523,0.117 0,0"
             style="fill:#ffddb8;fill-opacity:1;fill-rule:evenodd;stroke:none"
             id="path680"
             inkscape:connector-curvature="0" /></g><g
           id="g682"
           transform="translate(696.9453,362.1484)"><path
             d="m 0,0 c -0.523,-0.117 -0.729,-1.191 -0.459,-2.402 0.27,-1.211 0.912,-2.098 1.434,-1.983 0.523,0.117 0.728,1.194 0.459,2.403 C 1.164,-0.771 0.523,0.117 0,0"
             style="fill:#f7d6b2;fill-opacity:1;fill-rule:evenodd;stroke:none"
             id="path684"
             inkscape:connector-curvature="0" /></g><g
           id="g686"
           transform="translate(420.8477,257.7988)"><path
             d="M 0,0 C -22.202,0 -40.2,17.998 -40.2,40.199 -40.2,62.4 -22.202,80.398 0,80.398 22.203,80.398 40.201,62.4 40.201,40.199 40.201,17.998 22.203,0 0,0"
             style="fill:#e6615f;fill-opacity:1;fill-rule:evenodd;stroke:none"
             id="path688"
             inkscape:connector-curvature="0" /></g><g
           id="g690"
           transform="translate(405.8027,279.6465)"><path
             d="m 0,0 c -3.961,-2.57 -5.602,-8.096 -7.925,-14.641 6.513,-4.543 14.429,-7.207 22.97,-7.207 8.527,0 16.434,2.657 22.937,7.186 C 35.666,-8.088 34.051,-2.51 30.043,0 23.184,4.297 19.057,5.326 15.008,5.381 10.867,5.436 6.812,4.422 0,0"
             style="fill:#ffd67d;fill-opacity:1;fill-rule:evenodd;stroke:none"
             id="path692"
             inkscape:connector-curvature="0" /></g><g
           id="g694"
           transform="translate(429.8223,282.9277)"><path
             d="m 0,0 c -3.566,1.59 -6.307,2.063 -9.012,2.1 -2.765,0.037 -5.494,-0.403 -9.029,-2.018 0.92,-4.139 4.613,-7.234 9.029,-7.234 4.387,0 8.061,3.054 9.012,7.152"
             style="fill:#ffae00;fill-opacity:1;fill-rule:evenodd;stroke:none"
             id="path696"
             inkscape:connector-curvature="0" /></g><g
           id="g698"
           transform="translate(415.1445,300.1211)"><path
             d="m 0,0 11.361,0 0,-16.434 C 11.361,-21.98 0,-22.619 0,-16.434 L 0,0 z"
             style="fill:#ffddb8;fill-opacity:1;fill-rule:evenodd;stroke:none"
             id="path700"
             inkscape:connector-curvature="0" /></g><g
           id="g702"
           transform="translate(420.8242,321.0195)"><path
             d="M 0,0 C 24.062,0 14.309,-31.785 0,-31.785 -14.307,-31.785 -24.062,0 0,0"
             style="fill:#f0ceaa;fill-opacity:1;fill-rule:evenodd;stroke:none"
             id="path704"
             inkscape:connector-curvature="0" /></g><g
           id="g706"
           transform="translate(420.8242,321.0195)"><path
             d="M 0,0 C 24.062,0 14.309,-31.785 0,-31.785 L 0,0 z"
             style="fill:#ffddb8;fill-opacity:1;fill-rule:evenodd;stroke:none"
             id="path708"
             inkscape:connector-curvature="0" /></g><g
           id="g710"
           transform="translate(420.5742,317.2031)"><path
             d="m 0,0 c 2.695,0 3.836,1.191 5.67,0.342 3.658,-1.696 6.807,-6.473 7.678,-9.731 1.308,-4.886 0.57,-4.468 2.316,-0.744 1.744,3.725 -2.529,19.787 -15.01,19.787 -12.478,0 -17.588,-12.355 -15.843,-19.107 1.746,-6.75 1.746,-5.147 2.835,-0.026 C -11.262,-4.357 -8.941,-0.234 0,0"
             style="fill:#7d5f54;fill-opacity:1;fill-rule:evenodd;stroke:none"
             id="path712"
             inkscape:connector-curvature="0" /></g><g
           id="g714"
           transform="translate(427.2598,317.2852)"><path
             d="m 0,0 c -1.771,-1.535 -7.779,-4.996 -11.281,-5.09 0.918,0.83 1.539,1.604 1.842,2.545 0.304,0.941 -4.764,-3.549 -6.809,-3.742 1.057,1.26 1.234,1.783 1.283,2.476 -3.316,-1.814 -3.26,-5.324 -3.256,-8.15 0.006,-2.824 -1.523,-2.031 -1.316,1.068 0.209,3.098 -1.856,6.889 -0.82,9.336 1.037,2.45 14.689,5.838 19.021,5.838 4.332,0 7.91,-4.33 8.945,-6.215 1.036,-1.882 -0.974,-7.183 -0.918,-8.879 0.057,-1.693 -1.316,-3.548 -1.332,0.049 C 5.342,-7.166 3.262,-3.422 0,0"
             style="fill:#7d5f54;fill-opacity:1;fill-rule:evenodd;stroke:none"
             id="path716"
             inkscape:connector-curvature="0" /></g><g
           id="g718"
           transform="translate(436.2871,310.084)"><path
             d="M 0,0 C 0.875,-0.195 1.219,-1.998 0.768,-4.025 0.316,-6.053 -0.758,-7.539 -1.635,-7.344 -2.51,-7.15 -2.854,-5.348 -2.402,-3.32 -1.951,-1.291 -0.877,0.193 0,0"
             style="fill:#ffddb8;fill-opacity:1;fill-rule:evenodd;stroke:none"
             id="path720"
             inkscape:connector-curvature="0" /></g><g
           id="g722"
           transform="translate(405.377,310.084)"><path
             d="M 0,0 C -0.875,-0.195 -1.219,-1.998 -0.768,-4.025 -0.316,-6.053 0.76,-7.539 1.635,-7.344 2.51,-7.15 2.855,-5.348 2.404,-3.32 1.953,-1.291 0.877,0.193 0,0"
             style="fill:#f7d6b2;fill-opacity:1;fill-rule:evenodd;stroke:none"
             id="path724"
             inkscape:connector-curvature="0" /></g><g
           id="g734"
           transform="translate(532.2656,657.4453)"><path
             d="M 0,0 C -13.254,0 -24,10.745 -24,24 -24,37.254 -13.254,47.999 0,47.999 13.256,47.999 24,37.254 24,24 24,10.745 13.256,0 0,0"
             style="fill:#a8d0ce;fill-opacity:1;fill-rule:evenodd;stroke:none"
             id="path736"
             inkscape:connector-curvature="0" /></g><g
           id="g738"
           transform="translate(523.2148,670.4893)"><path
             d="m 0,0 c -2.357,-1.53 -3.338,-4.812 -4.719,-8.702 3.899,-2.736 8.647,-4.342 13.77,-4.342 5.066,0 9.765,1.571 13.638,4.251 C 21.299,-4.851 20.336,-1.503 17.936,0 13.84,2.564 11.375,3.179 8.959,3.212 6.488,3.245 4.066,2.64 0,0"
             style="fill:#e6615f;fill-opacity:1;fill-rule:evenodd;stroke:none"
             id="path740"
             inkscape:connector-curvature="0" /></g><g
           id="g742"
           transform="translate(528.791,682.7129)"><path
             d="m 0,0 6.783,0 0,-9.812 c 0,-1.72 -1.83,-7.348 -3.59,-7.327 C 1.566,-17.119 0,-11.586 0,-9.812 L 0,0 z"
             style="fill:#ffddb8;fill-opacity:1;fill-rule:evenodd;stroke:none"
             id="path744"
             inkscape:connector-curvature="0" /></g><g
           id="g746"
           transform="translate(535.5742,676.5527)"><path
             d="m 0,0 0,1.255 -6.783,0 0,-4.618 L 0,0 z"
             style="fill:#e8c5a0;fill-opacity:1;fill-rule:evenodd;stroke:none"
             id="path748"
             inkscape:connector-curvature="0" /></g><g
           id="g750"
           transform="translate(532.1816,695.1895)"><path
             d="M 0,0 C 14.365,0 8.543,-18.977 0,-18.977 -8.541,-18.977 -14.365,0 0,0"
             style="fill:#ffddb8;fill-opacity:1;fill-rule:evenodd;stroke:none"
             id="path752"
             inkscape:connector-curvature="0" /></g><g
           id="g754"
           transform="translate(536.3477,693.6064)"><path
             d="M 0,0 C 2.324,-0.988 3.271,-3.97 3.809,-5.979 4.59,-8.897 4.148,-8.646 5.191,-6.423 6.232,-4.199 3.682,5.391 -3.77,5.391 c -7.451,0 -10.5,-7.378 -9.459,-11.409 1.041,-4.03 1.043,-3.073 1.694,-0.015 C -9.861,1.83 -3.965,-1.612 0,0"
             style="fill:#eb817f;fill-opacity:1;fill-rule:evenodd;stroke:none"
             id="path756"
             inkscape:connector-curvature="0" /></g><g
           id="g758"
           transform="translate(536.8926,692.0625)"><path
             d="m 0,0 c -1.293,-0.562 -5.791,-3.429 -7.646,-3.484 -1.854,-0.057 0.337,0.337 0.843,0.899 0.506,0.562 -3.541,-1.294 -4.496,-1.35 -0.957,-0.055 0,0.113 0.449,0.731 0.45,0.619 -1.63,-0.337 -1.293,-2.024 0.336,-1.686 -1.392,-1.055 -1.503,0.519 -0.114,1.574 0.041,1.843 0.66,3.305 0.619,1.461 8.769,3.484 11.355,3.484 2.586,0 4.723,-2.585 5.342,-3.71 C 4.328,-2.754 4.467,-3.973 4.186,-4.984 3.904,-5.996 3.035,-6.464 3.035,-5.172 3.035,-3.879 0.955,-2.36 0,0"
             style="fill:#eb817f;fill-opacity:1;fill-rule:evenodd;stroke:none"
             id="path760"
             inkscape:connector-curvature="0" /></g><g
           id="g762"
           transform="translate(541.4922,688.6602)"><path
             d="m 0,0 c 0.523,-0.116 0.729,-1.192 0.459,-2.403 -0.27,-1.211 -0.912,-2.098 -1.434,-1.982 -0.523,0.116 -0.728,1.193 -0.459,2.404 C -1.164,-0.771 -0.523,0.116 0,0"
             style="fill:#ffddb8;fill-opacity:1;fill-rule:evenodd;stroke:none"
             id="path764"
             inkscape:connector-curvature="0" /></g><g
           id="g766"
           transform="translate(523.0391,688.6602)"><path
             d="m 0,0 c -0.523,-0.116 -0.729,-1.192 -0.459,-2.403 0.27,-1.211 0.912,-2.098 1.436,-1.982 0.521,0.116 0.728,1.193 0.459,2.404 C 1.166,-0.771 0.523,0.116 0,0"
             style="fill:#f7d6b2;fill-opacity:1;fill-rule:evenodd;stroke:none"
             id="path768"
             inkscape:connector-curvature="0" /></g><g
           id="g770"
           transform="translate(522.0918,669.4746)"><path
             d="m 0,0 c -1.588,-1.747 -2.453,-4.551 -3.596,-7.766 1.549,-1.079 3.229,-1.981 5.014,-2.675 0.242,1.068 0.371,2.199 0.371,3.371 C 1.789,-4.416 1.123,-1.967 0,0"
             style="fill:#ffaead;fill-opacity:1;fill-rule:evenodd;stroke:none"
             id="path772"
             inkscape:connector-curvature="0" /></g><g
           id="g774"
           transform="translate(540.8926,659.0264)"><path
             d="M 0,0 C 1.783,0.692 3.465,1.593 5.012,2.67 3.873,5.897 3.02,8.724 1.422,10.459 0.295,8.489 -0.373,6.037 -0.373,3.378 -0.373,2.203 -0.242,1.07 0,0"
             style="fill:#ffaead;fill-opacity:1;fill-rule:evenodd;stroke:none"
             id="path776"
             inkscape:connector-curvature="0" /></g><g
           id="g778"
           transform="translate(663.5625,658.7881)"><path
             d="m 0,0 c -22.201,0 -40.199,17.998 -40.199,40.2 0,22.202 17.998,40.201 40.199,40.201 22.203,0 40.201,-17.999 40.201,-40.201 C 40.201,17.998 22.203,0 0,0"
             style="fill:#ffcd61;fill-opacity:1;fill-rule:evenodd;stroke:none"
             id="path780"
             inkscape:connector-curvature="0" /></g><g
           id="g782"
           transform="translate(675.9004,702.5195)"><path
             d="M 0,0 C -3.844,-2.275 -1.172,-6.834 0.482,-4.215 2.092,-6.679 -2.211,-14.212 -9.992,-8.266 -17.771,-2.319 -6.422,9.461 0,0"
             style="fill:#7d5f54;fill-opacity:1;fill-rule:evenodd;stroke:none"
             id="path784"
             inkscape:connector-curvature="0" /></g><g
           id="g786"
           transform="translate(651.2832,702.832)"><path
             d="M 0,0 C 3.844,-2.275 1.172,-6.835 -0.482,-4.215 -2.092,-6.679 2.211,-14.212 9.992,-8.266 17.773,-2.319 6.422,9.461 0,0"
             style="fill:#7d5f54;fill-opacity:1;fill-rule:evenodd;stroke:none"
             id="path788"
             inkscape:connector-curvature="0" /></g><g
           id="g790"
           transform="translate(652.5059,697.3838)"><path
             d="m 0,0 c 3.229,-3.087 -0.406,-6.923 -1.424,-3.996 -2.125,-2.036 0.36,-10.348 9.285,-6.317 C 16.785,-6.283 8.396,7.762 0,0"
             style="fill:#7d5f54;fill-opacity:1;fill-rule:evenodd;stroke:none"
             id="path792"
             inkscape:connector-curvature="0" /></g><g
           id="g794"
           transform="translate(674.6641,697.3838)"><path
             d="M 0,0 C -3.229,-3.087 0.406,-6.923 1.424,-3.996 3.549,-6.032 1.062,-14.344 -7.861,-10.313 -16.787,-6.283 -8.396,7.762 0,0"
             style="fill:#7d5f54;fill-opacity:1;fill-rule:evenodd;stroke:none"
             id="path796"
             inkscape:connector-curvature="0" /></g><g
           id="g798"
           transform="translate(648.5332,680.6377)"><path
             d="m 0,0 c -3.959,-2.571 -5.6,-8.098 -7.924,-14.642 6.512,-4.542 14.43,-7.208 22.971,-7.208 8.525,0 16.432,2.658 22.937,7.186 C 35.666,-8.089 34.053,-2.51 30.045,0 23.184,4.296 19.057,5.324 15.008,5.379 10.869,5.436 6.812,4.422 0,0"
             style="fill:#ad4947;fill-opacity:1;fill-rule:evenodd;stroke:none"
             id="path800"
             inkscape:connector-curvature="0" /></g><g
           id="g802"
           transform="translate(657.875,701.1123)"><path
             d="m 0,0 11.361,0 0,-16.435 c 0,-5.546 -11.361,-6.184 -11.361,0 L 0,0 z"
             style="fill:#ffddb8;fill-opacity:1;fill-rule:evenodd;stroke:none"
             id="path804"
             inkscape:connector-curvature="0" /></g><g
           id="g806"
           transform="translate(669.2363,690.7949)"><path
             d="m 0,0 0,2.1 -11.361,0 0,-7.735 L 0,0 z"
             style="fill:#e8c5a0;fill-opacity:1;fill-rule:evenodd;stroke:none"
             id="path808"
             inkscape:connector-curvature="0" /></g><g
           id="g810"
           transform="translate(663.5547,722.0107)"><path
             d="M 0,0 C 24.064,0 14.309,-31.785 0,-31.785 -14.307,-31.785 -24.062,0 0,0"
             style="fill:#ffddb8;fill-opacity:1;fill-rule:evenodd;stroke:none"
             id="path812"
             inkscape:connector-curvature="0" /></g><g
           id="g814"
           transform="translate(663.5625,670.207)"><path
             d="m 0,0 c 0,2.085 -5.615,9.591 -5.615,13.643 l 11.23,0 C 5.615,9.591 0,2.085 0,0"
             style="fill:#ffddb8;fill-opacity:1;fill-rule:evenodd;stroke:none"
             id="path816"
             inkscape:connector-curvature="0" /></g><g
           id="g818"
           transform="translate(663.5508,669.7246)"><path
             d="m 0,0 c -3.563,5.29 -7.447,7.011 -9.824,7.016 0.502,2.36 1.789,4.958 2.709,5.961 -3.826,-0.034 -5.024,-0.817 -6.67,-2.019 0.5,3.035 4.994,6.624 8.109,7.901 0,-2.236 -0.232,-6.521 1.963,-9.396 C -1.516,6.588 0,4.474 0,0"
             style="fill:#70a7cc;fill-opacity:1;fill-rule:evenodd;stroke:none"
             id="path820"
             inkscape:connector-curvature="0" /></g><g
           id="g822"
           transform="translate(663.5508,669.7246)"><path
             d="m 0,0 c 3.561,5.29 7.447,7.011 9.822,7.016 -0.502,2.36 -1.789,4.958 -2.707,5.961 3.826,-0.034 5.022,-0.817 6.668,-2.019 -0.5,3.035 -4.992,6.624 -8.107,7.901 0,-2.236 0.23,-6.521 -1.965,-9.396 C 1.516,6.588 0,4.474 0,0"
             style="fill:#70a7cc;fill-opacity:1;fill-rule:evenodd;stroke:none"
             id="path824"
             inkscape:connector-curvature="0" /></g><g
           id="g826"
           transform="translate(663.1484,718.1924)"><path
             d="m 0,0 c 8.07,0 11.977,-5.301 12.234,-9.387 0.26,-4.085 1.684,-4.468 3.428,-0.744 1.746,3.725 -2.529,19.787 -15.008,19.787 -12.478,0 -17.588,-12.356 -15.843,-19.107 1.744,-6.751 3.908,-2.924 3.824,-0.027 C -11.449,-6.581 -8.943,-0.232 0,0"
             style="fill:#7d5f54;fill-opacity:1;fill-rule:evenodd;stroke:none"
             id="path828"
             inkscape:connector-curvature="0" /></g><g
           id="g830"
           transform="translate(679.0176,711.0742)"><path
             d="M 0,0 C 0.877,-0.195 1.221,-1.997 0.77,-4.025 0.318,-6.053 -0.758,-7.539 -1.633,-7.345 -2.51,-7.149 -2.854,-5.348 -2.402,-3.319 -1.951,-1.292 -0.875,0.194 0,0"
             style="fill:#ffddb8;fill-opacity:1;fill-rule:evenodd;stroke:none"
             id="path832"
             inkscape:connector-curvature="0" /></g><g
           id="g834"
           transform="translate(648.1094,711.0742)"><path
             d="m 0,0 c -0.877,-0.195 -1.221,-1.997 -0.77,-4.025 0.452,-2.028 1.528,-3.514 2.403,-3.32 0.877,0.196 1.221,1.997 0.769,4.026 C 1.951,-1.292 0.875,0.194 0,0"
             style="fill:#f7d6b2;fill-opacity:1;fill-rule:evenodd;stroke:none"
             id="path836"
             inkscape:connector-curvature="0" /></g><g
           id="g838"
           transform="translate(653.3613,721.1123)"><path
             d="M 0,0 C -0.779,-4.772 8.338,-11.554 18.83,-12.011 19.779,0.392 8.211,4.614 0,0"
             style="fill:#7d5f54;fill-opacity:1;fill-rule:evenodd;stroke:none"
             id="path840"
             inkscape:connector-curvature="0" /></g><g
           id="g842"
           transform="translate(663.4316,658.8008)"><path
             d="M 0,0 C -0.047,4.532 0.021,10.154 0.295,13.353 -0.676,9.862 -0.771,4.383 -0.514,0.007 -0.344,0.004 -0.172,0.001 0,0"
             style="fill:#70a7cc;fill-opacity:1;fill-rule:evenodd;stroke:none"
             id="path844"
             inkscape:connector-curvature="0" /></g><g
           id="g1008"
           transform="translate(489.6738,560.0088)"><path
             d="M 0,0 C -13.256,0 -24,10.745 -24,24 -24,37.255 -13.256,48 0,48 13.254,48 24,37.255 24,24 24,10.745 13.254,0 0,0"
             style="fill:#e6615f;fill-opacity:1;fill-rule:evenodd;stroke:none"
             id="path1010"
             inkscape:connector-curvature="0" /></g><g
           id="g1012"
           transform="translate(480.7012,573.0527)"><path
             d="m 0,0 c -2.365,-1.535 -3.344,-4.834 -4.73,-8.74 1.896,-1.324 3.992,-2.38 6.234,-3.115 2.072,1.747 4.867,1.122 7.478,1.122 2.202,3.424 5.125,1.035 7.479,-1.121 2.234,0.732 4.324,1.784 6.215,3.1 C 21.293,-4.828 20.328,-1.498 17.936,0 13.84,2.564 11.377,3.18 8.959,3.212 6.488,3.246 4.066,2.641 0,0"
             style="fill:#ffffff;fill-opacity:1;fill-rule:evenodd;stroke:none"
             id="path1014"
             inkscape:connector-curvature="0" /></g><g
           id="g1016"
           transform="translate(486.2773,585.2764)"><path
             d="m 0,0 6.783,0 0,-9.812 c 0,-3.311 -6.783,-3.692 -6.783,0 L 0,0 z"
             style="fill:#ffddb8;fill-opacity:1;fill-rule:evenodd;stroke:none"
             id="path1018"
             inkscape:connector-curvature="0" /></g><g
           id="g1020"
           transform="translate(493.0605,579.1172)"><path
             d="m 0,0 0,1.254 -6.783,0 0,-4.618 L 0,0 z"
             style="fill:#e8c5a0;fill-opacity:1;fill-rule:evenodd;stroke:none"
             id="path1022"
             inkscape:connector-curvature="0" /></g><g
           id="g1024"
           transform="translate(489.6699,597.7529)"><path
             d="M 0,0 C 14.365,0 8.541,-18.976 0,-18.976 -8.543,-18.976 -14.367,0 0,0"
             style="fill:#ffddb8;fill-opacity:1;fill-rule:evenodd;stroke:none"
             id="path1026"
             inkscape:connector-curvature="0" /></g><g
           id="g1028"
           transform="translate(489.4258,596.0713)"><path
             d="m 0,0 c 4.818,0 7.15,-3.164 7.305,-5.604 0.154,-2.439 1.004,-2.667 2.047,-0.444 1.041,2.224 -1.51,11.814 -8.961,11.814 -7.45,0 -10.5,-7.378 -9.459,-11.409 1.043,-4.03 2.334,-1.745 2.283,-0.015 C -6.834,-3.929 -5.338,-0.139 0,0"
             style="fill:#7d5f54;fill-opacity:1;fill-rule:evenodd;stroke:none"
             id="path1030"
             inkscape:connector-curvature="0" /></g><g
           id="g1032"
           transform="translate(482.5879,588.9248)"><path
             d="m 0,0 c -0.244,-1.702 -1.771,-0.581 -1.883,0.993 -0.113,1.574 0.041,1.842 0.66,3.304 0.619,1.462 3.909,5.37 8.061,5.37 4.15,0 8.017,-4.471 8.637,-5.596 C 16.092,2.947 16.23,1.729 15.949,0.718 15.668,-0.294 15.012,-0.998 14.656,0.245 13.445,4.499 10.023,7.066 6.945,7.12 3.16,7.187 0.445,3.102 0,0"
             style="fill:#7d5f54;fill-opacity:1;fill-rule:evenodd;stroke:none"
             id="path1034"
             inkscape:connector-curvature="0" /></g><g
           id="g1036"
           transform="translate(498.9004,591.2236)"><path
             d="m 0,0 c 0.523,-0.116 0.729,-1.192 0.459,-2.402 -0.27,-1.211 -0.912,-2.099 -1.436,-1.982 -0.521,0.116 -0.728,1.192 -0.459,2.403 C -1.166,-0.771 -0.523,0.116 0,0"
             style="fill:#ffddb8;fill-opacity:1;fill-rule:evenodd;stroke:none"
             id="path1038"
             inkscape:connector-curvature="0" /></g><g
           id="g1040"
           transform="translate(480.4473,591.2236)"><path
             d="m 0,0 c -0.523,-0.116 -0.729,-1.192 -0.459,-2.402 0.27,-1.211 0.912,-2.099 1.434,-1.982 0.523,0.116 0.728,1.192 0.459,2.403 C 1.164,-0.771 0.523,0.116 0,0"
             style="fill:#f7d6b2;fill-opacity:1;fill-rule:evenodd;stroke:none"
             id="path1042"
             inkscape:connector-curvature="0" /></g><g
           id="g1044"
           transform="translate(484.2773,575.0645)"><path
             d="m 0,0 0,-10.436 5.396,0 5.397,0 0,10.371 c 0.65,-0.291 1.348,-0.646 2.105,-1.074 l 0,-12.723 c -2.416,-0.794 -4.959,-1.194 -7.502,-1.194 -2.562,0 -5.078,0.402 -7.501,1.201 l 0,1.462 0,11.29 C -1.348,-0.66 -0.65,-0.297 0,0"
             style="fill:#2e5b78;fill-opacity:1;fill-rule:evenodd;stroke:none"
             id="path1046"
             inkscape:connector-curvature="0" /></g><g
           id="g1048"
           transform="translate(495.2969,595.5039)"><path
             d="M 0,0 C 0.465,-2.85 -4.979,-6.898 -11.242,-7.171 -11.809,0.233 -4.902,2.754 0,0"
             style="fill:#7d5f54;fill-opacity:1;fill-rule:evenodd;stroke:none"
             id="path1050"
             inkscape:connector-curvature="0" /></g><g
           id="g1136"
           transform="translate(118.9766,351.498)"><path
             d="m 0,0 c -22.278,0 -40.338,18.059 -40.338,40.338 0,22.277 18.06,40.338 40.338,40.338 22.277,0 40.338,-18.061 40.338,-40.338 C 40.338,18.059 22.277,0 0,0"
             style="fill:#ffcd61;fill-opacity:1;fill-rule:evenodd;stroke:none"
             id="path1138"
             inkscape:connector-curvature="0" /></g><g
           id="g1140"
           transform="translate(103.8799,373.4219)"><path
             d="m 0,0 c -3.974,-2.58 -5.62,-8.125 -7.951,-14.691 6.533,-4.559 14.477,-7.233 23.048,-7.233 8.556,0 16.489,2.666 23.016,7.209 C 35.787,-8.115 34.168,-2.518 30.146,0 23.263,4.311 19.121,5.342 15.059,5.398 10.905,5.455 6.834,4.437 0,0"
             style="fill:#eb817f;fill-opacity:1;fill-rule:evenodd;stroke:none"
             id="path1142"
             inkscape:connector-curvature="0" /></g><g
           id="g1144"
           transform="translate(113.2529,393.9668)"><path
             d="m 0,0 11.4,0 0,-16.49 C 11.4,-19.293 6.996,-29.326 5.7,-38.334 4.754,-32.852 0,-19.572 0,-16.49 L 0,0 z"
             style="fill:#ffddb8;fill-opacity:1;fill-rule:evenodd;stroke:none"
             id="path1146"
             inkscape:connector-curvature="0" /></g><g
           id="g1148"
           transform="translate(121.8916,367.6152)"><path
             d="m 0,0 c -1.153,-3.705 -2.358,-7.947 -2.938,-11.982 -0.482,2.791 -1.951,7.601 -3.276,12.06 1.027,-0.223 2.139,-0.346 3.299,-0.346 1.017,0 1.996,0.094 2.915,0.268"
             style="fill:#e6615f;fill-opacity:1;fill-rule:evenodd;stroke:none"
             id="path1150"
             inkscape:connector-curvature="0" /></g><g
           id="g1152"
           transform="translate(124.6533,383.6133)"><path
             d="m 0,0 0,2.107 -11.4,0 0,-7.759 L 0,0 z"
             style="fill:#e8c5a0;fill-opacity:1;fill-rule:evenodd;stroke:none"
             id="path1154"
             inkscape:connector-curvature="0" /></g><g
           id="g1156"
           transform="translate(118.9531,414.9365)"><path
             d="M 0,0 C 24.145,0 14.357,-31.894 0,-31.894 -14.356,-31.894 -24.145,0 0,0"
             style="fill:#ffddb8;fill-opacity:1;fill-rule:evenodd;stroke:none"
             id="path1158"
             inkscape:connector-curvature="0" /></g><g
           id="g1160"
           transform="translate(118.7031,411.106)"><path
             d="m 0,0 c 8.097,0 12.079,-4.514 13.393,-9.42 1.313,-4.905 0.573,-4.485 2.323,-0.746 1.751,3.738 -2.538,19.855 -15.06,19.855 -12.522,0 -17.648,-12.4 -15.897,-19.173 1.75,-6.774 1.751,-5.167 2.845,-0.028 C -11.302,-4.373 -8.974,-0.234 0,0"
             style="fill:#c48872;fill-opacity:1;fill-rule:evenodd;stroke:none"
             id="path1162"
             inkscape:connector-curvature="0" /></g><g
           id="g1164"
           transform="translate(134.4687,403.9614)"><path
             d="M 0,0 C 0.878,-0.195 1.224,-2.002 0.771,-4.037 0.318,-6.073 -0.762,-7.565 -1.64,-7.368 -2.519,-7.172 -2.864,-5.366 -2.411,-3.33 -1.959,-1.295 -0.879,0.197 0,0"
             style="fill:#ffddb8;fill-opacity:1;fill-rule:evenodd;stroke:none"
             id="path1166"
             inkscape:connector-curvature="0" /></g><g
           id="g1168"
           transform="translate(103.4531,403.9614)"><path
             d="M 0,0 C -0.878,-0.195 -1.224,-2.002 -0.771,-4.037 -0.318,-6.073 0.761,-7.565 1.64,-7.368 2.519,-7.172 2.864,-5.366 2.411,-3.33 1.958,-1.295 0.879,0.197 0,0"
             style="fill:#f7d6b2;fill-opacity:1;fill-rule:evenodd;stroke:none"
             id="path1170"
             inkscape:connector-curvature="0" /></g><g
           id="g1172"
           transform="translate(109.9639,403.061)"><path
             d="m 0,0 c -0.849,-0.395 -2.033,-1.605 -1.578,-4.147 0.455,-2.541 2.006,-3.797 3.905,-3.609 1.9,0.185 4.199,1.576 5.19,3.074 0.434,0.658 0.616,1.436 0.558,2.159 l 0.938,0 0,0.402 -0.995,0 C 7.857,-1.363 7.417,-0.707 6.714,-0.375 6.395,-0.225 5.986,-0.08 5.523,0.043 l 3.21,0 0.28,0 0,0.402 -0.28,0 -6.11,0 C 1.653,0.457 0.715,0.332 0,0 m 9.013,-2.523 0.937,0 c -0.057,-0.723 0.125,-1.501 0.56,-2.159 0.989,-1.498 3.29,-2.889 5.189,-3.074 1.899,-0.188 3.45,1.068 3.905,3.609 0.455,2.542 -0.73,3.752 -1.579,4.147 -0.713,0.332 -1.653,0.457 -2.623,0.445 l -6.11,0 -0.279,0 0,-0.402 0.279,0 3.21,0 c -0.463,-0.123 -0.871,-0.268 -1.19,-0.418 -0.703,-0.332 -1.143,-0.988 -1.303,-1.746 l -0.996,0 0,-0.402 z"
             style="fill:#e6615f;fill-opacity:1;fill-rule:evenodd;stroke:none"
             id="path1174"
             inkscape:connector-curvature="0" /></g><g
           id="g1176"
           transform="translate(110.1338,402.6978)"><path
             d="m 0,0 c -0.473,-0.221 -0.854,-0.631 -1.091,-1.09 -0.413,-0.801 -0.417,-1.754 -0.262,-2.621 0.224,-1.252 0.817,-2.581 2.067,-3.094 0.446,-0.184 0.925,-0.237 1.403,-0.19 1.721,0.17 3.94,1.453 4.894,2.899 0.621,0.939 0.731,2.369 -0.036,3.262 -0.168,0.193 -0.371,0.35 -0.603,0.459 C 5.419,0.076 4.041,0.316 2.996,0.385 2.056,0.445 0.867,0.402 0,0"
             style="fill:#ffaead;fill-opacity:1;fill-rule:evenodd;stroke:none"
             id="path1178"
             inkscape:connector-curvature="0" /></g><g
           id="g1180"
           transform="translate(127.8203,402.6978)"><path
             d="m 0,0 c 0.472,-0.221 0.854,-0.631 1.09,-1.09 0.413,-0.801 0.417,-1.754 0.263,-2.621 -0.225,-1.252 -0.818,-2.581 -2.067,-3.094 -0.447,-0.184 -0.926,-0.237 -1.404,-0.19 -1.721,0.17 -3.94,1.453 -4.894,2.899 -0.621,0.939 -0.731,2.369 0.037,3.262 0.167,0.193 0.371,0.35 0.602,0.459 0.953,0.451 2.331,0.691 3.376,0.76 C -2.057,0.445 -0.867,0.402 0,0"
             style="fill:#ffaead;fill-opacity:1;fill-rule:evenodd;stroke:none"
             id="path1182"
             inkscape:connector-curvature="0" /></g><g
           id="g1184"
           transform="translate(118.9531,355.6328)"><path
             d="m 0,0 c 0,7.404 -5.732,18.303 -5.7,25.77 -5.003,-1.829 -7.361,-4.813 -9.373,-7.981 C -3.788,17.576 -3.03,6.244 0,0"
             style="fill:#7e9c9b;fill-opacity:1;fill-rule:evenodd;stroke:none"
             id="path1186"
             inkscape:connector-curvature="0" /></g><g
           id="g1188"
           transform="translate(118.9531,355.6328)"><path
             d="m 0,0 c 0,10.682 5.758,18.545 5.7,26.187 3.87,-0.468 9.154,-6.443 9.725,-8.63 C 4.14,17.344 3.031,6.244 0,0"
             style="fill:#7e9c9b;fill-opacity:1;fill-rule:evenodd;stroke:none"
             id="path1190"
             inkscape:connector-curvature="0" /></g><g
           id="g1192"
           transform="translate(125.5596,411.5317)"><path
             d="m 0,0 c -1.771,-1.535 -7.777,-4.996 -11.281,-5.09 0.919,0.828 1.539,1.604 1.843,2.545 0.304,0.941 -4.764,-3.551 -6.809,-3.742 1.057,1.258 1.233,1.781 1.283,2.476 -3.317,-1.814 -3.26,-5.324 -3.255,-8.15 0.004,-2.825 -1.524,-2.032 -1.317,1.066 0.208,3.1 -1.857,6.891 -0.82,9.338 1.036,2.449 14.689,5.839 19.02,5.839 4.332,0 7.91,-4.333 8.946,-6.216 C 8.646,-3.816 6.635,-9.117 6.692,-10.813 6.75,-12.508 5.377,-14.362 5.359,-10.764 5.344,-7.166 3.262,-3.424 0,0"
             style="fill:#c48872;fill-opacity:1;fill-rule:evenodd;stroke:none"
             id="path1194"
             inkscape:connector-curvature="0" /></g></g></g></g></svg>